<svg xmlns="http://www.w3.org/2000/svg" viewBox="0 0 141.65 23.95"><defs><style>.cls-1{fill:#fff;}</style></defs><g id="Camada_2" data-name="Camada 2"><g id="Camada_1-2" data-name="Camada 1"><path class="cls-1" d="M89.35,13.59a3.74,3.74,0,0,0-1.63-1,14.24,14.24,0,0,0-2.24-.5,8.88,8.88,0,0,1-1.63-.36,1.48,1.48,0,0,1-.69-.41,1,1,0,0,1-.18-.63,1.08,1.08,0,0,1,.44-.89,2.3,2.3,0,0,1,1.43-.37,2.81,2.81,0,0,1,1.62.4,1.22,1.22,0,0,1,.57,1l0,.3h2.59v-.32A2.92,2.92,0,0,0,89,8.93a3.9,3.9,0,0,0-1.71-1.24,6.59,6.59,0,0,0-2.47-.44,6,6,0,0,0-2.42.44,3.47,3.47,0,0,0-1.55,1.24,3.12,3.12,0,0,0-.52,1.77,2.71,2.71,0,0,0,1.24,2.45,7.44,7.44,0,0,0,3.1,1,11.33,11.33,0,0,1,1.59.33,1.83,1.83,0,0,1,.8.43.94.94,0,0,1,.25.7,1.17,1.17,0,0,1-.54,1,3.17,3.17,0,0,1-1.78.4,3.73,3.73,0,0,1-1.45-.25,1.92,1.92,0,0,1-.88-.64,1.45,1.45,0,0,1-.3-.89V15l-2.57,0v.32a3.38,3.38,0,0,0,.6,1.93,4.19,4.19,0,0,0,1.79,1.43,6.66,6.66,0,0,0,2.8.54,7.46,7.46,0,0,0,2.57-.4,3.94,3.94,0,0,0,1.8-1.23,3.18,3.18,0,0,0,.65-2,2.79,2.79,0,0,0-.67-1.94"/><path class="cls-1" d="M50,15.1a3.51,3.51,0,0,1-5.47.58l3.57-1.54,1-.42,3.74-1.61a5.83,5.83,0,0,0-.9-2.18h0a5.88,5.88,0,1,0,1,3.93ZM47,9.69a3.53,3.53,0,0,1,2.65,1.19l-6.15,2.65c0-.11,0-.21,0-.32A3.52,3.52,0,0,1,47,9.69"/><path class="cls-1" d="M75.9,13.41A3.89,3.89,0,0,1,75.17,16a2.64,2.64,0,0,1-2.11.84A2.6,2.6,0,0,1,71,16a3.86,3.86,0,0,1-.74-2.57v-6H67.88v6a6.76,6.76,0,0,0,.65,3.13,4.24,4.24,0,0,0,1.84,1.88,6,6,0,0,0,2.71.59,5.88,5.88,0,0,0,2.68-.59A4.29,4.29,0,0,0,77.6,16.6a6.81,6.81,0,0,0,.65-3.13v-6H75.9Z"/><path class="cls-1" d="M97.3,8.9V6.53H94.89V2.94L92.28,3V6.53H90.94V8.9h1.34v5.5c0,1.81.38,3,1.16,3.73a4.23,4.23,0,0,0,2.92,1h.94V16.85h-.54a1.9,1.9,0,0,1-1.36-.48,2.57,2.57,0,0,1-.51-1.87V8.9Z"/><path class="cls-1" d="M66.14,13.25a5.88,5.88,0,1,0-5.88,5.88,5.81,5.81,0,0,0,3.36-1.06A4.77,4.77,0,0,1,59,21.6H57V24h2a7.12,7.12,0,0,0,7.11-7.11v-3.4a1.21,1.21,0,0,0,0-.19m-5.88,3.52a3.52,3.52,0,1,1,3.52-3.52,3.53,3.53,0,0,1-3.52,3.52"/><path class="cls-1" d="M25.81,19.21V2.9H32A7.13,7.13,0,0,1,37.5,5.1a8.49,8.49,0,0,1,2,6A8.27,8.27,0,0,1,37.45,17a7.45,7.45,0,0,1-5.7,2.19Zm2.53-2.43h3.52a4.49,4.49,0,0,0,3.7-1.61A6.27,6.27,0,0,0,36.9,11a6.12,6.12,0,0,0-1.34-4.08,4.45,4.45,0,0,0-3.67-1.62H28.34Z"/><path class="cls-1" d="M107.82,19.44a5.2,5.2,0,0,0,5-3.63h-2.27a3.1,3.1,0,1,1-.11-3.31h2.31a5.19,5.19,0,1,0-4.89,6.94"/><path class="cls-1" d="M116.54,16.13v-2a3.43,3.43,0,0,1,.66-2.28,2.69,2.69,0,0,1,3.73,0,3.46,3.46,0,0,1,.65,2.28v5.31h2.08V14.05a5.92,5.92,0,0,0-.58-2.77,3.82,3.82,0,0,0-1.63-1.67,5.14,5.14,0,0,0-2.37-.52,5.28,5.28,0,0,0-2.41.52l-.13.08V5h-2.07V19.41h2.07Z"/><path class="cls-1" d="M130.45,19.46a5.22,5.22,0,0,0,5.18-4.63l-2.55,1.1a3.12,3.12,0,0,1-4.85.51l3.16-1.36.87-.37,3.31-1.43A5.19,5.19,0,0,0,130.45,9a5.21,5.21,0,1,0,0,10.42m0-8.33a3.11,3.11,0,0,1,2.34,1.06l-5.45,2.35c0-.1,0-.2,0-.29a3.12,3.12,0,0,1,3.12-3.12"/><path class="cls-1" d="M140,11.45a1.7,1.7,0,0,1,1.21-.42h.47V9h-.83a3.77,3.77,0,0,0-2.59.91,4.3,4.3,0,0,0-1,3.3v6.25h2.32v-4.2h2.13v-2h-2.13v-.14a2.29,2.29,0,0,1,.45-1.66"/><rect class="cls-1" x="102.75" y="21.3" width="38.9" height="2.07"/><path class="cls-1" d="M18,2.89A10.68,10.68,0,1,0,13.47,21h0a10.53,10.53,0,0,1-2.66-.63C6,18.52,2.88,12.06,5.08,7.26S13.3,2,18,2.89"/><path class="cls-1" d="M19.51,16.71a10.72,10.72,0,0,0,1.35-9.3.14.14,0,0,1,0-.06c-.12-.35-.24-.68-.39-1A5.25,5.25,0,0,0,17.84,3.7c-2.61-.48-6.69-.79-9.56,1A6.4,6.4,0,1,1,6.6,15.61a9.25,9.25,0,0,0,4.5,4,10.06,10.06,0,0,0,2.46.58l.55.06a7.92,7.92,0,0,0,5.4-3.53"/></g></g></svg>