<svg xmlns="http://www.w3.org/2000/svg" viewBox="0 0 143.1 22.15"><defs><style>.cls-1{fill:#fff;}</style></defs><g id="Camada_2" data-name="Camada 2"><g id="Camada_1-2" data-name="Camada 1"><path class="cls-1" d="M45.47,14.43a3.3,3.3,0,0,1-5.13.54l3.35-1.44.91-.4,3.51-1.5a5.46,5.46,0,0,0-.84-2.05h0a5.51,5.51,0,1,0,.9,3.69ZM42.69,9.35a3.27,3.27,0,0,1,2.48,1.12L39.41,13c0-.1,0-.2,0-.3a3.3,3.3,0,0,1,3.3-3.3"/><path class="cls-1" d="M57.26,12.61a3.63,3.63,0,0,0-.69-2.41,2.85,2.85,0,0,0-3.94,0,3.65,3.65,0,0,0-.7,2.41v5.61h-2.2V12.56a6.25,6.25,0,0,1,.61-2.94,4,4,0,0,1,1.73-1.76,6,6,0,0,1,5.05,0,4,4,0,0,1,1.72,1.76,6.29,6.29,0,0,1,.61,2.93v5.67h-2.2Z"/><path class="cls-1" d="M61.18,12.66a5.52,5.52,0,1,0,11,0V3.05H70v5.2a5.53,5.53,0,0,0-8.82,4.41m2.22,0A3.3,3.3,0,1,1,66.69,16a3.28,3.28,0,0,1-3.29-3.31"/><path class="cls-1" d="M84.71,12.39a5.53,5.53,0,1,0-2.21,4.7v1.1h2.21v-5.8ZM79.2,16a3.3,3.3,0,1,1,3.31-3.3A3.3,3.3,0,0,1,79.2,16"/><polygon class="cls-1" points="36.05 2.97 38.69 2.97 32.27 18.26 30.68 18.26 24.2 2.97 26.93 2.97 31.51 14.33 36.05 2.97"/><path class="cls-1" d="M92.9,16.5V12.56A2.13,2.13,0,0,1,93.33,11a1.55,1.55,0,0,1,1.13-.4h.44V8.69h-.78a3.5,3.5,0,0,0-2.43.86,4,4,0,0,0-1,3.09v5.82H92.9Z"/><polygon class="cls-1" points="104.21 5.27 102.16 5.27 100.81 7.36 102.85 7.36 104.21 5.27"/><rect class="cls-1" x="118.71" y="8.71" width="1.96" height="9.77"/><path class="cls-1" d="M119.75,7.72a1.33,1.33,0,1,0-1.33-1.33,1.34,1.34,0,0,0,1.33,1.33"/><path class="cls-1" d="M117.23,13.6a4.88,4.88,0,1,0-9.76,0v8.53h2V17.51a4.89,4.89,0,0,0,7.81-3.91m-7.8,0a2.93,2.93,0,1,1,2.92,2.92,2.93,2.93,0,0,1-2.92-2.92"/><path class="cls-1" d="M127.12,18.49A4.89,4.89,0,0,0,132,13.61V5.08h-2V9.69a4.89,4.89,0,1,0-2.94,8.8m0-7.81a2.93,2.93,0,1,1-2.93,2.92,2.92,2.92,0,0,1,2.93-2.92"/><path class="cls-1" d="M101.05,18.49a4.77,4.77,0,0,0,2.92-1v1h2V13.36h0a4.88,4.88,0,1,0-4.88,5.13m0-7.8a2.93,2.93,0,1,1-2.92,2.92,2.93,2.93,0,0,1,2.92-2.92"/><path class="cls-1" d="M138.21,18.49a4.88,4.88,0,0,0,2.93-1v1h2V13.36h0a4.88,4.88,0,1,0-4.88,5.13m0-7.81a2.93,2.93,0,1,1-2.93,2.93,2.93,2.93,0,0,1,2.93-2.93"/><rect class="cls-1" x="110.13" y="20.21" width="32.97" height="1.94"/><rect class="cls-1" x="90.73" y="20.21" width="15.99" height="1.94"/><path class="cls-1" d="M18,2.89A10.68,10.68,0,1,0,13.47,21h0a10.53,10.53,0,0,1-2.66-.63C6,18.52,2.88,12.06,5.08,7.26S13.3,2,18,2.89"/><path class="cls-1" d="M19.51,16.71a10.72,10.72,0,0,0,1.35-9.3.14.14,0,0,1,0-.06c-.12-.35-.24-.68-.39-1A5.25,5.25,0,0,0,17.84,3.7c-2.61-.48-6.69-.79-9.56,1A6.4,6.4,0,1,1,6.6,15.61a9.25,9.25,0,0,0,4.5,4,10.06,10.06,0,0,0,2.46.58l.55.06a7.92,7.92,0,0,0,5.4-3.53"/></g></g></svg>