<svg width="50" height="37" viewBox="0 0 50 37" fill="none" xmlns="http://www.w3.org/2000/svg">
<g id="Group 107">
<path id="Vector" d="M24.1511 23.5739V32.5972C24.1511 33.3475 23.543 33.9555 22.7928 33.9555H4.3203C3.57011 33.9555 2.96195 33.3475 2.96195 32.5972V4.40282C2.96195 3.65254 3.57011 3.04447 4.3203 3.04447H22.7928C23.543 3.04447 24.1511 3.65254 24.1511 4.40282V15.8752C24.1511 16.4674 24.6312 16.9474 25.2234 16.9474C25.8156 16.9474 26.2956 16.4674 26.2956 15.8752V4.40282C26.2956 2.46811 24.7272 0.9 22.7928 0.9H4.3203C2.38584 0.9 0.81748 2.46811 0.81748 4.40282V32.5972C0.81748 34.5319 2.38584 36.1 4.3203 36.1H22.7928C24.7272 36.1 26.2956 34.5319 26.2956 32.5972V23.5739C26.2956 22.9817 25.8156 22.5016 25.2234 22.5016C24.6312 22.5016 24.1511 22.9817 24.1511 23.5739Z" fill="#4885ED" stroke="#292D32" stroke-width="0.2"/>
<path id="Vector_2" d="M20.5243 14.9512L20.2961 15.179C19.8338 15.6412 19.8338 16.3911 20.2961 16.8534L20.5243 14.9512ZM20.5243 14.9512C20.9875 14.4878 21.7371 14.4878 22.1993 14.9503L20.5243 14.9512ZM19.0792 13.505C20.3399 12.2435 22.3846 12.2435 23.6452 13.5048L33.124 22.9831C33.5427 23.4019 33.5428 24.0807 33.124 24.4995C32.7053 24.9182 32.0264 24.9183 31.6077 24.4995L22.1286 15.021L22.1286 15.021C21.7055 14.5976 21.0192 14.5975 20.5951 15.0219L20.595 15.022L20.3668 15.2497L20.3667 15.2498C19.9436 15.6729 19.9436 16.3595 20.3668 16.7827L29.8163 26.2322H29.8164L29.8457 26.2615C30.2644 26.6803 30.2644 27.3591 29.8457 27.7779C29.4269 28.1966 28.748 28.1966 28.3293 27.7779L18.8505 18.2991C17.5898 17.0383 17.5898 14.994 18.8512 13.7326L18.8513 13.7325L19.0792 13.505ZM19.0792 13.505L19.0793 13.5049L19.1499 13.5757L19.0792 13.505ZM7.23697 6.93326H7.23698H19.876C20.0894 6.93326 20.2622 7.10606 20.2622 7.31938V9.26385C20.2622 9.47718 20.0894 9.64997 19.876 9.64997H7.23698C7.02366 9.64997 6.85087 9.47718 6.85087 9.26385V7.31938V7.31936C6.85086 7.26866 6.86084 7.21845 6.88024 7.1716C6.89964 7.12475 6.92808 7.08218 6.96393 7.04633C6.99979 7.01047 7.04235 6.98203 7.0892 6.96263C7.13605 6.94323 7.18626 6.93325 7.23697 6.93326ZM9.6865 16.3563L9.68649 16.3562C9.53447 15.5552 8.8807 14.9008 8.07903 14.7488L8.07901 14.7488C6.6399 14.4761 5.40029 15.7157 5.6735 17.1548C5.82506 17.9559 6.47935 18.6102 7.28048 18.7623L7.28051 18.7623C8.71963 19.035 9.9592 17.7954 9.6865 16.3563ZM15.5199 16.3563L15.5199 16.3562C15.3679 15.5552 14.7141 14.9008 13.9124 14.7488L13.9124 14.7488C12.4733 14.4761 11.2337 15.7156 11.5069 17.1547C11.6584 17.9559 12.3127 18.6102 13.1139 18.7623L13.1139 18.7623C14.553 19.035 15.7926 17.7954 15.5199 16.3563ZM15.4217 16.3749C15.6812 17.7448 14.5024 18.9236 13.1325 18.664L13.8938 14.847C14.6551 14.9914 15.2773 15.6141 15.4217 16.3749ZM9.6865 22.2383L9.68649 22.2383C9.53447 21.4372 8.8807 20.7828 8.07903 20.6308L8.07901 20.6308C6.63992 20.3581 5.40033 21.5976 5.67349 23.0368C5.82503 23.8379 6.47933 24.4923 7.28048 24.6443L7.28051 24.6443C8.71963 24.917 9.9592 23.6774 9.6865 22.2383ZM15.5199 22.2383L15.5199 22.2383C15.3679 21.4372 14.7141 20.7828 13.9124 20.6308L13.9124 20.6308C12.4733 20.3581 11.2337 21.5976 11.5069 23.0368C11.6584 23.8379 12.3127 24.4923 13.1139 24.6443L13.1139 24.6443C14.553 24.917 15.7926 23.6774 15.5199 22.2383ZM21.3533 22.2383L21.3533 22.2383C21.2013 21.4372 20.5475 20.7828 19.7459 20.6308L19.7458 20.6308C18.3067 20.3581 17.0672 21.5976 17.3403 23.0368C17.4919 23.8379 18.1462 24.4923 18.9473 24.6443L18.9473 24.6443C20.3865 24.917 21.626 23.6774 21.3533 22.2383ZM9.6865 28.0717L9.68649 28.0717C9.53447 27.2706 8.8807 26.6162 8.07903 26.4642C6.63992 26.1915 5.40033 27.431 5.67349 28.8702C5.82503 29.6713 6.47933 30.3257 7.28048 30.4777L7.28051 30.4777C8.71963 30.7504 9.9592 29.5108 9.6865 28.0717ZM15.5199 28.0717L15.5199 28.0717C15.3679 27.2706 14.7141 26.6162 13.9124 26.4642C12.4733 26.1915 11.2337 27.431 11.5069 28.8702C11.6584 29.6713 12.3127 30.3257 13.1139 30.4777L13.1139 30.4777C14.553 30.7504 15.7926 29.5108 15.5199 28.0717ZM21.3533 28.0717L21.3533 28.0717C21.2013 27.2706 20.5475 26.6162 19.7459 26.4642C18.3067 26.1915 17.0672 27.4311 17.3403 28.8702C17.4919 29.6713 18.1462 30.3257 18.9473 30.4777L18.9473 30.4777C20.3865 30.7504 21.626 29.5108 21.3533 28.0717ZM18.9219 13.8033C17.6995 15.0256 17.6995 17.0067 18.9212 18.2284L28.4 27.7072C28.7797 28.0869 29.3953 28.0869 29.775 27.7072C30.1546 27.3275 30.1546 26.7119 29.775 26.3322L18.9219 13.8033ZM7.23698 11.7944H19.876C21.2737 11.7944 22.4066 10.6615 22.4066 9.26385V7.31938C22.4066 5.92173 21.2737 4.78879 19.876 4.78879H7.23698C5.83933 4.78879 4.7064 5.92173 4.7064 7.31938V9.26385C4.7064 10.6615 5.83933 11.7944 7.23698 11.7944Z" fill="#4885ED" stroke="#292D32" stroke-width="0.2"/>
<path id="Vector_3" d="M28.2279 16.5543L28.228 16.5542L28.4573 16.3244C28.4573 16.3244 28.4573 16.3243 28.4573 16.3243C28.8798 15.902 29.5663 15.9019 29.9896 16.3251L34.9529 21.2879C35.3716 21.7067 36.0505 21.7066 36.4692 21.2879C36.8879 20.8691 36.8879 20.1902 36.4692 19.7715L31.5059 14.8087C31.5059 14.8087 31.5059 14.8087 31.5059 14.8087C30.2453 13.5481 28.2009 13.5481 26.9402 14.8088L26.9401 14.8089L26.711 15.0384C26.711 15.0385 26.711 15.0385 26.7109 15.0385C25.4505 16.2983 25.4506 18.3424 26.7117 19.6035L31.6745 24.5663C32.0932 24.985 32.7721 24.985 33.1908 24.5663C33.6096 24.1475 33.6096 23.4686 33.1908 23.0499L28.2281 18.0871C27.8044 17.6635 27.8044 16.9775 28.2279 16.5543Z" fill="#4885ED" stroke="#292D32" stroke-width="0.2"/>
<path id="Vector_4" d="M32.4205 14.191L32.4206 14.1909L32.6499 13.9611C32.6499 13.9611 32.6499 13.9611 32.65 13.961C33.0724 13.5387 33.759 13.5386 34.1822 13.9618L39.1455 18.9246C39.5642 19.3434 40.2432 19.3433 40.6619 18.9246C41.0805 18.5059 41.0806 17.8269 40.6618 17.4082L35.6986 12.4455C35.6986 12.4455 35.6986 12.4455 35.6986 12.4455C34.4379 11.1848 32.3935 11.1848 31.1328 12.4455L31.1327 12.4456L30.9036 12.6752C30.9036 12.6752 30.9036 12.6752 30.9036 12.6752C29.6431 13.935 29.6432 15.9791 30.9043 17.2402L35.8671 22.203C36.2858 22.6217 36.9647 22.6217 37.3835 22.203C37.8022 21.7843 37.8022 21.1054 37.3835 20.6866L32.4207 15.7239C31.997 15.3002 31.9971 14.6142 32.4205 14.191Z" fill="#4885ED" stroke="#292D32" stroke-width="0.2"/>
<path id="Vector_5" d="M36.6036 11.8481L36.6035 11.8482C36.1801 12.2713 36.18 12.9573 36.6037 13.381L41.5665 18.3437C41.9852 18.7625 41.9852 19.4414 41.5665 19.8601C41.1477 20.2788 40.4688 20.2788 40.0501 19.8601L35.0873 14.8973C33.8262 13.6362 33.8261 11.5922 35.0866 10.3324L36.6036 11.8481ZM36.6036 11.8481L36.8329 11.6182M36.6036 11.8481L36.8329 11.6182M36.8329 11.6182C37.2553 11.1958 37.9419 11.1957 38.3652 11.6189L43.3285 16.5818C43.7472 17.0005 44.4262 17.0004 44.8449 16.5817C45.2636 16.163 45.2636 15.484 44.8448 15.0653L39.8816 10.1026C38.6209 8.84191 36.5765 8.84191 35.3158 10.1026L35.3157 10.1027L35.0866 10.3323L36.8329 11.6182ZM33.5378 30.095L33.6085 30.0243L33.5378 29.9535L29.1229 25.5386L29.0522 25.4679L28.9815 25.5386L27.6065 26.9136L27.5358 26.9843L27.6065 27.055L32.0215 31.4699L32.0922 31.5406L32.1629 31.4699L33.5378 30.095Z" fill="#4885ED" stroke="#292D32" stroke-width="0.2"/>
<path id="Vector_6" d="M39.7037 12.816L39.633 12.8867L39.7037 12.9574L45.3796 18.6333L45.4503 18.704L45.521 18.6333L46.896 17.2583L46.9667 17.1876L46.896 17.1169L41.2201 11.441L41.1494 11.3703L41.0786 11.441L39.7037 12.816Z" fill="#4885ED" stroke="#292D32" stroke-width="0.2"/>
<path id="Vector_7" d="M45.0222 18.2263V18.2679L45.0517 18.2972C46.5881 19.8252 47.4665 21.894 47.4665 24.1044C47.4665 28.6276 43.8 32.2941 39.2767 32.2941C37.0741 32.2941 35.0125 31.4222 33.4859 29.8956L33.4152 29.8249L33.3445 29.8956L31.9696 31.2706L31.8989 31.3413L31.9696 31.412C33.8943 33.3368 36.4996 34.4386 39.2767 34.4386C44.9843 34.4386 49.611 29.812 49.611 24.1044C49.611 21.3173 48.501 18.7032 46.5638 16.7766L46.4929 16.7061L46.4224 16.777L45.0513 18.1557L45.0222 18.185V18.2262V18.2263Z" fill="#4885ED" stroke="#292D32" stroke-width="0.2"/>
</g>
</svg>
