<svg width="50" height="37" viewBox="0 0 50 37" fill="none" xmlns="http://www.w3.org/2000/svg">
<path d="M24.1511 23.5739V32.5972C24.1511 33.3475 23.543 33.9555 22.7928 33.9555H4.3203C3.57011 33.9555 2.96195 33.3475 2.96195 32.5972V4.40282C2.96195 3.65254 3.57011 3.04447 4.3203 3.04447H22.7928C23.543 3.04447 24.1511 3.65254 24.1511 4.40282V15.8752C24.1511 16.4674 24.6312 16.9474 25.2234 16.9474C25.8156 16.9474 26.2956 16.4674 26.2956 15.8752V4.40282C26.2956 2.46811 24.7272 0.9 22.7928 0.9H4.3203C2.38584 0.9 0.81748 2.46811 0.81748 4.40282V32.5972C0.81748 34.5319 2.38584 36.1 4.3203 36.1H22.7928C24.7272 36.1 26.2956 34.5319 26.2956 32.5972V23.5739C26.2956 22.9817 25.8156 22.5016 25.2234 22.5016C24.6312 22.5016 24.1511 22.9817 24.1511 23.5739Z" fill="#007E7D" stroke="#007E7D" stroke-width="0.2"/>
<path d="M20.5245 14.9511L20.2962 15.1788C19.8339 15.6411 19.8339 16.391 20.2962 16.8533L20.5245 14.9511ZM20.5245 14.9511C20.9876 14.4877 21.7372 14.4877 22.1995 14.9502L20.5245 14.9511ZM19.0793 13.5049C20.34 12.2434 22.3848 12.2434 23.6453 13.5047L33.1241 22.983C33.5428 23.4017 33.5429 24.0806 33.1241 24.4994C32.7054 24.9181 32.0265 24.9182 31.6078 24.4994L22.1288 15.0209L22.1287 15.0209C21.7056 14.5975 21.0193 14.5974 20.5952 15.0218L20.5951 15.0219L20.3669 15.2496L20.3668 15.2496C19.9437 15.6728 19.9437 16.3594 20.3669 16.7826L29.8164 26.2321H29.8165L29.8458 26.2614C30.2645 26.6801 30.2645 27.359 29.8458 27.7778C29.427 28.1965 28.7482 28.1965 28.3294 27.7778L18.8506 18.2989C17.5899 17.0382 17.5899 14.9938 18.8513 13.7324L18.8514 13.7324L19.0793 13.5049ZM19.0793 13.5049L19.0794 13.5048L19.15 13.5756L19.0793 13.5049ZM7.23709 6.93314H7.23711H19.8762C20.0895 6.93314 20.2623 7.10594 20.2623 7.31926V9.26373C20.2623 9.47705 20.0895 9.64985 19.8762 9.64985H7.23711C7.02378 9.64985 6.85099 9.47705 6.85099 9.26373V7.31926V7.31924C6.85098 7.26853 6.86096 7.21832 6.88036 7.17148C6.89976 7.12463 6.9282 7.08206 6.96405 7.04621C6.99991 7.01035 7.04247 6.98191 7.08932 6.96251C7.13617 6.94311 7.18638 6.93313 7.23709 6.93314ZM9.68662 16.3562L9.68662 16.3561C9.5346 15.555 8.88082 14.9007 8.07915 14.7487L8.07913 14.7487C6.64002 14.476 5.40042 15.7155 5.67363 17.1547C5.82518 17.9558 6.47947 18.6101 7.28061 18.7621L7.28063 18.7621C8.71975 19.0348 9.95932 17.7953 9.68662 16.3562ZM15.52 16.3562L15.52 16.3561C15.368 15.555 14.7142 14.9007 13.9126 14.7487L13.9125 14.7487C12.4735 14.476 11.2339 15.7155 11.507 17.1546C11.6586 17.9558 12.3129 18.6101 13.114 18.7621L13.114 18.7621C14.5532 19.0348 15.7927 17.7953 15.52 16.3562ZM15.4218 16.3748C15.6814 17.7446 14.5025 18.9235 13.1327 18.6639L13.8939 14.8469C14.6552 14.9913 15.2774 15.614 15.4218 16.3748ZM9.68662 22.2382L9.68662 22.2381C9.5346 21.4371 8.88082 20.7827 8.07915 20.6307L8.07913 20.6307C6.64004 20.358 5.40045 21.5975 5.67361 23.0366C5.82515 23.8378 6.47945 24.4921 7.28061 24.6442L7.28063 24.6442C8.71975 24.9169 9.95932 23.6773 9.68662 22.2382ZM15.52 22.2382L15.52 22.2381C15.368 21.4371 14.7142 20.7827 13.9126 20.6307L13.9125 20.6307C12.4735 20.358 11.2339 21.5975 11.507 23.0366C11.6586 23.8378 12.3129 24.4921 13.114 24.6442L13.114 24.6442C14.5532 24.9169 15.7927 23.6773 15.52 22.2382ZM21.3534 22.2382L21.3534 22.2381C21.2014 21.4371 20.5476 20.7827 19.746 20.6307L19.746 20.6307C18.3069 20.358 17.0673 21.5975 17.3404 23.0366C17.492 23.8378 18.1463 24.4921 18.9474 24.6442L18.9475 24.6442C20.3866 24.9169 21.6262 23.6773 21.3534 22.2382ZM9.68662 28.0716L9.68662 28.0716C9.5346 27.2705 8.88082 26.6161 8.07915 26.4641C6.64004 26.1914 5.40045 27.4309 5.67361 28.8701C5.82515 29.6712 6.47945 30.3255 7.28061 30.4776L7.28063 30.4776C8.71975 30.7503 9.95932 29.5107 9.68662 28.0716ZM15.52 28.0716L15.52 28.0716C15.368 27.2705 14.7142 26.6161 13.9126 26.4641C12.4735 26.1914 11.2339 27.4309 11.507 28.8701C11.6586 29.6712 12.3129 30.3255 13.114 30.4776L13.114 30.4776C14.5532 30.7503 15.7927 29.5107 15.52 28.0716ZM21.3534 28.0716L21.3534 28.0716C21.2014 27.2705 20.5476 26.6161 19.746 26.4641C18.3069 26.1914 17.0673 27.4309 17.3404 28.8701C17.492 29.6712 18.1463 30.3255 18.9474 30.4776L18.9475 30.4776C20.3866 30.7503 21.6262 29.5107 21.3534 28.0716ZM18.922 13.8031C17.6997 15.0255 17.6997 17.0066 18.9213 18.2282L28.4001 27.7071C28.7798 28.0867 29.3954 28.0867 29.7751 27.7071C30.1548 27.3274 30.1548 26.7118 29.7751 26.3321L18.922 13.8031ZM7.23711 11.7943H19.8762C21.2738 11.7943 22.4068 10.6614 22.4068 9.26373V7.31926C22.4068 5.92161 21.2738 4.78867 19.8762 4.78867H7.23711C5.83945 4.78867 4.70652 5.92161 4.70652 7.31926V9.26373C4.70652 10.6614 5.83945 11.7943 7.23711 11.7943Z" fill="#007E7D" stroke="#007E7D" stroke-width="0.2"/>
<path d="M28.2279 16.5545L28.228 16.5544L28.4573 16.3245C28.4573 16.3245 28.4573 16.3245 28.4573 16.3244C28.8798 15.9021 29.5663 15.902 29.9896 16.3252L34.9529 21.2881C35.3716 21.7068 36.0505 21.7067 36.4692 21.288C36.8879 20.8693 36.8879 20.1903 36.4692 19.7716L31.5059 14.8089C31.5059 14.8089 31.5059 14.8089 31.5059 14.8089C30.2453 13.5482 28.2009 13.5482 26.9402 14.8089L26.9401 14.809L26.711 15.0386C26.711 15.0386 26.711 15.0386 26.7109 15.0386C25.4505 16.2984 25.4506 18.3425 26.7117 19.6036L31.6745 24.5664C32.0932 24.9851 32.7721 24.9851 33.1908 24.5664C33.6096 24.1477 33.6096 23.4688 33.1908 23.05L28.2281 18.0873C27.8044 17.6636 27.8044 16.9776 28.2279 16.5545Z" fill="#007E7D" stroke="#007E7D" stroke-width="0.2"/>
<path d="M32.4205 14.1912L32.4206 14.1911L32.6499 13.9612C32.6499 13.9612 32.6499 13.9612 32.65 13.9612C33.0724 13.5388 33.759 13.5388 34.1822 13.962L39.1455 18.9248C39.5642 19.3435 40.2432 19.3435 40.6619 18.9247C41.0805 18.506 41.0806 17.827 40.6618 17.4084L35.6986 12.4456C35.6986 12.4456 35.6986 12.4456 35.6986 12.4456C34.4379 11.1849 32.3935 11.1849 31.1328 12.4456L31.1327 12.4457L30.9036 12.6753C30.9036 12.6753 30.9036 12.6753 30.9036 12.6753C29.6431 13.9351 29.6432 15.9792 30.9043 17.2404L35.8671 22.2031C36.2858 22.6219 36.9647 22.6219 37.3835 22.2031C37.8022 21.7844 37.8022 21.1055 37.3835 20.6868L32.4207 15.724C31.997 15.3003 31.9971 14.6143 32.4205 14.1912Z" fill="#007E7D" stroke="#007E7D" stroke-width="0.2"/>
<path d="M36.6036 11.8481L36.6035 11.8482C36.1801 12.2713 36.18 12.9573 36.6037 13.381L41.5665 18.3437C41.9852 18.7625 41.9852 19.4414 41.5665 19.8601C41.1477 20.2788 40.4688 20.2788 40.0501 19.8601L35.0873 14.8973C33.8262 13.6362 33.8261 11.5922 35.0866 10.3324L36.6036 11.8481ZM36.6036 11.8481L36.8329 11.6182M36.6036 11.8481L36.8329 11.6182M36.8329 11.6182C37.2553 11.1958 37.9419 11.1957 38.3652 11.6189L43.3285 16.5818C43.7472 17.0005 44.4262 17.0004 44.8449 16.5817C45.2636 16.163 45.2636 15.484 44.8448 15.0653L39.8816 10.1026C38.6209 8.84191 36.5765 8.84191 35.3158 10.1026L35.3157 10.1027L35.0866 10.3323L36.8329 11.6182ZM33.5378 30.095L33.6085 30.0243L33.5378 29.9535L29.1229 25.5386L29.0522 25.4679L28.9815 25.5386L27.6065 26.9136L27.5358 26.9843L27.6065 27.055L32.0215 31.4699L32.0922 31.5406L32.1629 31.4699L33.5378 30.095Z" fill="#007E7D" stroke="#007E7D" stroke-width="0.2"/>
<path d="M39.7037 12.816L39.633 12.8867L39.7037 12.9574L45.3796 18.6333L45.4503 18.704L45.521 18.6333L46.896 17.2583L46.9667 17.1876L46.896 17.1169L41.2201 11.441L41.1494 11.3703L41.0786 11.441L39.7037 12.816Z" fill="#007E7D" stroke="#007E7D" stroke-width="0.2"/>
<path d="M45.0222 18.2262V18.2677L45.0517 18.2971C46.5881 19.8251 47.4665 21.8939 47.4665 24.1042C47.4665 28.6275 43.8 32.294 39.2767 32.294C37.0741 32.294 35.0125 31.4221 33.4859 29.8955L33.4152 29.8248L33.3445 29.8955L31.9696 31.2705L31.8989 31.3412L31.9696 31.4119C33.8943 33.3366 36.4996 34.4385 39.2767 34.4385C44.9843 34.4385 49.611 29.8119 49.611 24.1042C49.611 21.3171 48.501 18.703 46.5638 16.7765L46.4929 16.706L46.4224 16.7769L45.0513 18.1556L45.0222 18.1848V18.2261V18.2262Z" fill="#007E7D" stroke="#007E7D" stroke-width="0.2"/>
</svg>
