<svg width="29" height="37" viewBox="0 0 29 37" fill="none" xmlns="http://www.w3.org/2000/svg">
<path d="M26.75 18.5V28.8125C26.75 32.2299 21.2095 35 14.375 35C7.54047 35 2 32.2299 2 28.8125V18.5M26.75 18.5V8.1875M26.75 18.5C26.75 21.9174 21.2095 24.6875 14.375 24.6875C7.54047 24.6875 2 21.9174 2 18.5M2 18.5V8.1875M26.75 8.1875C26.75 4.77025 21.2095 2 14.375 2C7.54047 2 2 4.77025 2 8.1875M26.75 8.1875C26.75 11.6048 21.2095 14.375 14.375 14.375C7.54047 14.375 2 11.6048 2 8.1875" stroke="#007E7D" stroke-width="3" stroke-linecap="round" stroke-linejoin="round"/>
</svg>
