<svg xmlns="http://www.w3.org/2000/svg" viewBox="0 0 115.84 21.06"><defs><style>.cls-1{fill:#fff;}</style></defs><g id="Camada_2" data-name="Camada 2"><g id="Camada_1-2" data-name="Camada 1"><path class="cls-1" d="M63.54,10.69a3.74,3.74,0,0,0-1.63-1,13.19,13.19,0,0,0-2.25-.49A9.64,9.64,0,0,1,58,8.81a1.51,1.51,0,0,1-.69-.42,1,1,0,0,1-.18-.63,1,1,0,0,1,.44-.88A2.3,2.3,0,0,1,59,6.5a2.89,2.89,0,0,1,1.62.4,1.22,1.22,0,0,1,.57,1l0,.3h2.59V7.87A3,3,0,0,0,63.22,6a3.9,3.9,0,0,0-1.71-1.25A6.59,6.59,0,0,0,59,4.35a6,6,0,0,0-2.42.44A3.54,3.54,0,0,0,55.07,6a3.15,3.15,0,0,0-.53,1.77,2.72,2.72,0,0,0,1.24,2.45,7.54,7.54,0,0,0,3.11,1,11.33,11.33,0,0,1,1.59.33,1.84,1.84,0,0,1,.8.44.9.9,0,0,1,.25.69,1.16,1.16,0,0,1-.54,1,3.19,3.19,0,0,1-1.78.41,3.92,3.92,0,0,1-1.45-.25,2,2,0,0,1-.88-.65,1.52,1.52,0,0,1-.31-.89v-.31L54,12v.33a3.38,3.38,0,0,0,.6,1.92,4.21,4.21,0,0,0,1.79,1.44,6.82,6.82,0,0,0,2.8.53,7.5,7.5,0,0,0,2.57-.4,3.79,3.79,0,0,0,1.79-1.23,3.11,3.11,0,0,0,.66-2,2.8,2.8,0,0,0-.67-1.94"/><path class="cls-1" d="M24.2,12.21a3.54,3.54,0,0,1-3,1.62,3.49,3.49,0,0,1-2.5-1.05l3.57-1.53,1-.42L27,9.22A5.81,5.81,0,0,0,26.11,7h0a5.88,5.88,0,1,0,1,3.94Zm-3-5.42A3.5,3.5,0,0,1,23.88,8l-6.15,2.65c0-.11,0-.22,0-.33a3.52,3.52,0,0,1,3.52-3.52"/><path class="cls-1" d="M50.09,10.52a3.86,3.86,0,0,1-.73,2.57,3.06,3.06,0,0,1-4.21,0,3.9,3.9,0,0,1-.74-2.57v-6H42.07v6a6.83,6.83,0,0,0,.65,3.14,4.27,4.27,0,0,0,1.84,1.87,5.82,5.82,0,0,0,2.71.6,5.75,5.75,0,0,0,2.68-.6,4.24,4.24,0,0,0,1.84-1.88,6.78,6.78,0,0,0,.65-3.13v-6H50.09Z"/><path class="cls-1" d="M71.49,6V3.64H69.08V.05H66.47V3.64H65.13V6h1.34v5.5c0,1.8.38,3,1.16,3.72a4.19,4.19,0,0,0,2.92,1h.94V14H71a1.86,1.86,0,0,1-1.36-.48,2.55,2.55,0,0,1-.51-1.87V6Z"/><path class="cls-1" d="M40.33,10.35a5.88,5.88,0,1,0-5.88,5.88,5.81,5.81,0,0,0,3.36-1.06,4.76,4.76,0,0,1-4.6,3.54h-2v2.35h2a7.13,7.13,0,0,0,7.11-7.12V10.55c0-.07,0-.13,0-.2m-5.88,3.52A3.52,3.52,0,1,1,38,10.35a3.52,3.52,0,0,1-3.52,3.52"/><path class="cls-1" d="M0,16.31V0H6.14a7.1,7.1,0,0,1,5.55,2.21,8.47,8.47,0,0,1,2,6,8.24,8.24,0,0,1-2.09,5.93,7.47,7.47,0,0,1-5.7,2.19Zm2.53-2.43H6.05a4.49,4.49,0,0,0,3.7-1.61,6.27,6.27,0,0,0,1.34-4.15A6.13,6.13,0,0,0,9.75,4,4.47,4.47,0,0,0,6.08,2.43H2.53Z"/><path class="cls-1" d="M82,16.54a5.19,5.19,0,0,0,5-3.63H84.7a3.11,3.11,0,1,1-.12-3.31H86.9A5.19,5.19,0,1,0,82,16.54"/><path class="cls-1" d="M90.73,13.23v-2a3.4,3.4,0,0,1,.66-2.27,2.27,2.27,0,0,1,1.86-.75,2.3,2.3,0,0,1,1.86.74,3.43,3.43,0,0,1,.66,2.28v5.31h2.08V11.16a5.93,5.93,0,0,0-.58-2.78,3.74,3.74,0,0,0-1.63-1.66,5.14,5.14,0,0,0-2.37-.53,5.28,5.28,0,0,0-2.41.53l-.13.07V2.14H88.66V16.51h2.07Z"/><path class="cls-1" d="M104.64,16.56a5.2,5.2,0,0,0,5.17-4.63L107.26,13a3.11,3.11,0,0,1-4.84.51l3.16-1.36.87-.37,3.31-1.43a5.21,5.21,0,1,0-5.12,6.18m0-8.33A3.11,3.11,0,0,1,107,9.29l-5.45,2.35a2.81,2.81,0,0,1,0-.29,3.12,3.12,0,0,1,3.12-3.12"/><path class="cls-1" d="M114.16,8.56a1.65,1.65,0,0,1,1.2-.43h.48V6.08H115a3.71,3.71,0,0,0-2.59.92,4.27,4.27,0,0,0-1,3.3v6.24h2.32V12.35h2.13v-2h-2.13v-.15a2.25,2.25,0,0,1,.45-1.65"/><rect class="cls-1" x="76.94" y="18.4" width="38.9" height="2.07"/></g></g></svg>