<svg width="43" height="43" viewBox="0 0 43 43" fill="none" xmlns="http://www.w3.org/2000/svg">
<path d="M39.05 12.725L31.25 16.625M31.25 16.625C31.25 16.625 30.6558 16.9221 30.275 17.1125C26.8481 18.826 21.5 21.5 21.5 21.5M31.25 16.625V23.45M31.25 16.625L12.725 6.875M21.5 21.5L3.95 12.725M21.5 21.5V40.025M28.4765 4.69484L32.3765 6.74146C36.5723 8.94329 38.6701 10.0442 39.8351 12.0225C41 14.0008 41 16.4625 41 21.3859V21.6141C41 26.5374 41 28.9993 39.8351 30.9776C38.6701 32.9559 36.5723 34.0566 32.3765 36.2586L28.4765 38.3051C25.0531 40.1016 23.3414 41 21.5 41C19.6586 41 17.9469 40.1016 14.5235 38.3051L10.6235 36.2586C6.42773 34.0566 4.32984 32.9559 3.16493 30.9776C2 28.9993 2 26.5374 2 21.6141V21.3859C2 16.4625 2 14.0008 3.16493 12.0225C4.32984 10.0442 6.42773 8.94329 10.6235 6.74146L14.5235 4.69484C17.9469 2.89829 19.6586 2 21.5 2C23.3414 2 25.0531 2.89829 28.4765 4.69484Z" stroke="#007E7D" stroke-width="3" stroke-linecap="round"/>
</svg>
