<svg width="41" height="41" viewBox="0 0 41 41" fill="none" xmlns="http://www.w3.org/2000/svg">
<mask id="path-1-inside-1_2_305" fill="white">
<path d="M33 16H26C25.4477 16 25 16.4477 25 17V18C25 18.5523 25.4477 19 26 19H33C33.5523 19 34 18.5523 34 18V17C34 16.4477 33.5523 16 33 16Z"/>
</mask>
<path d="M33 16H26C25.4477 16 25 16.4477 25 17V18C25 18.5523 25.4477 19 26 19H33C33.5523 19 34 18.5523 34 18V17C34 16.4477 33.5523 16 33 16Z" fill="#007E7D"/>
<path d="M26 23H33V9H26V23ZM27 17V18H41V17H27ZM33 12H26V26H33V12ZM32 18V17H18V18H32ZM26 12C29.3137 12 32 14.6863 32 18H18C18 22.4183 21.5817 26 26 26V12ZM27 18C27 14.6863 29.6863 12 33 12V26C37.4183 26 41 22.4183 41 18H27ZM33 23C29.6863 23 27 20.3137 27 17H41C41 12.5817 37.4183 9 33 9V23ZM26 9C21.5817 9 18 12.5817 18 17H32C32 20.3137 29.3137 23 26 23V9Z" fill="#007E7D" mask="url(#path-1-inside-1_2_305)"/>
<mask id="path-3-inside-2_2_305" fill="white">
<path d="M16 29C16 28.4477 15.5523 28 15 28H14C13.4477 28 13 27.5523 13 27V26C13 25.4477 12.5523 25 12 25H11C10.4477 25 10 25.4477 10 26V27C10 27.5523 9.55228 28 9 28H8C7.44772 28 7 28.4477 7 29V30C7 30.5523 7.44772 31 8 31H9C9.55228 31 10 31.4477 10 32V33C10 33.5523 10.4477 34 11 34H12C12.5523 34 13 33.5523 13 33V32C13 31.4477 13.4477 31 14 31H15C15.5523 31 16 30.5523 16 30V29Z"/>
</mask>
<path d="M16 29C16 28.4477 15.5523 28 15 28H14C13.4477 28 13 27.5523 13 27V26C13 25.4477 12.5523 25 12 25H11C10.4477 25 10 25.4477 10 26V27C10 27.5523 9.55228 28 9 28H8C7.44772 28 7 28.4477 7 29V30C7 30.5523 7.44772 31 8 31H9C9.55228 31 10 31.4477 10 32V33C10 33.5523 10.4477 34 11 34H12C12.5523 34 13 33.5523 13 33V32C13 31.4477 13.4477 31 14 31H15C15.5523 31 16 30.5523 16 30V29Z" fill="#007E7D"/>
<path d="M15 21H14V35H15V21ZM20 27V26H6V27H20ZM12 18H11V32H12V18ZM3 26V27H17V26H3ZM9 21H8V35H9V21ZM0 29V30H14V29H0ZM8 38H9V24H8V38ZM3 32V33H17V32H3ZM11 41H12V27H11V41ZM20 33V32H6V33H20ZM14 38H15V24H14V38ZM23 30V29H9V30H23ZM15 38C19.4183 38 23 34.4183 23 30H9C9 26.6863 11.6863 24 15 24V38ZM20 32C20 35.3137 17.3137 38 14 38V24C9.58172 24 6 27.5817 6 32H20ZM12 41C16.4183 41 20 37.4183 20 33H6C6 29.6863 8.68629 27 12 27V41ZM3 33C3 37.4183 6.58172 41 11 41V27C14.3137 27 17 29.6863 17 33H3ZM9 38C5.68629 38 3 35.3137 3 32H17C17 27.5817 13.4183 24 9 24V38ZM0 30C0 34.4183 3.58172 38 8 38V24C11.3137 24 14 26.6863 14 30H0ZM8 21C3.58172 21 0 24.5817 0 29H14C14 32.3137 11.3137 35 8 35V21ZM3 27C3 23.6863 5.68629 21 9 21V35C13.4183 35 17 31.4183 17 27H3ZM11 18C6.58172 18 3 21.5817 3 26H17C17 29.3137 14.3137 32 11 32V18ZM20 26C20 21.5817 16.4183 18 12 18V32C8.68629 32 6 29.3137 6 26H20ZM14 21C17.3137 21 20 23.6863 20 27H6C6 31.4183 9.58172 35 14 35V21ZM15 35C11.6863 35 9 32.3137 9 29H23C23 24.5817 19.4183 21 15 21V35Z" fill="#007E7D" mask="url(#path-3-inside-2_2_305)"/>
<mask id="path-5-inside-3_2_305" fill="white">
<path d="M15 10H8C7.44772 10 7 10.4477 7 11C7 11.5523 7.44772 12 8 12H15C15.5523 12 16 11.5523 16 11C16 10.4477 15.5523 10 15 10Z"/>
</mask>
<path d="M15 10H8C7.44772 10 7 10.4477 7 11C7 11.5523 7.44772 12 8 12H15C15.5523 12 16 11.5523 16 11C16 10.4477 15.5523 10 15 10Z" fill="#007E7D"/>
<path d="M8 17H15V3H8V17ZM15 5H8V19H15V5ZM8 5C11.3137 5 14 7.68629 14 11H0C0 15.4183 3.58172 19 8 19V5ZM9 11C9 7.68629 11.6863 5 15 5V19C19.4183 19 23 15.4183 23 11H9ZM15 17C11.6863 17 9 14.3137 9 11H23C23 6.58172 19.4183 3 15 3V17ZM8 3C3.58172 3 0 6.58172 0 11H14C14 14.3137 11.3137 17 8 17V3Z" fill="#007E7D" mask="url(#path-5-inside-3_2_305)"/>
<mask id="path-7-inside-4_2_305" fill="white">
<path d="M33 22H26C25.4477 22 25 22.4477 25 23V24C25 24.5523 25.4477 25 26 25H33C33.5523 25 34 24.5523 34 24V23C34 22.4477 33.5523 22 33 22Z"/>
</mask>
<path d="M33 22H26C25.4477 22 25 22.4477 25 23V24C25 24.5523 25.4477 25 26 25H33C33.5523 25 34 24.5523 34 24V23C34 22.4477 33.5523 22 33 22Z" fill="#007E7D"/>
<path d="M26 29H33V15H26V29ZM27 23V24H41V23H27ZM33 18H26V32H33V18ZM32 24V23H18V24H32ZM26 18C29.3137 18 32 20.6863 32 24H18C18 28.4183 21.5817 32 26 32V18ZM27 24C27 20.6863 29.6863 18 33 18V32C37.4183 32 41 28.4183 41 24H27ZM33 29C29.6863 29 27 26.3137 27 23H41C41 18.5817 37.4183 15 33 15V29ZM26 15C21.5817 15 18 18.5817 18 23H32C32 26.3137 29.3137 29 26 29V15Z" fill="#007E7D" mask="url(#path-7-inside-4_2_305)"/>
<mask id="path-9-inside-5_2_305" fill="white">
<path d="M37.8462 0H3.15385C2.31769 0.000959926 1.51605 0.333547 0.9248 0.9248C0.333547 1.51605 0.000959926 2.31769 0 3.15385V37.8462C0.000959926 38.6823 0.333547 39.4839 0.9248 40.0752C1.51605 40.6665 2.31769 40.999 3.15385 41H37.8462C38.6823 40.999 39.4839 40.6665 40.0752 40.0752C40.6665 39.4839 40.999 38.6823 41 37.8462V3.15385C40.999 2.31769 40.6665 1.51605 40.0752 0.9248C39.4839 0.333547 38.6823 0.000959926 37.8462 0ZM17.9231 3.15385C18.4754 3.15385 18.9231 3.60156 18.9231 4.15385V17.9231C18.9231 18.4754 18.4754 18.9231 17.9231 18.9231H4.15385C3.60156 18.9231 3.15385 18.4754 3.15385 17.9231V4.15385C3.15385 3.60156 3.60156 3.15385 4.15385 3.15385H17.9231ZM3.15385 23.0769C3.15385 22.5246 3.60156 22.0769 4.15385 22.0769H17.9231C18.4754 22.0769 18.9231 22.5246 18.9231 23.0769V36.8462C18.9231 37.3984 18.4754 37.8462 17.9231 37.8462H4.15385C3.60156 37.8462 3.15385 37.3984 3.15385 36.8462V23.0769ZM23.0769 37.8462C22.5246 37.8462 22.0769 37.3984 22.0769 36.8462V4.15385C22.0769 3.60156 22.5246 3.15385 23.0769 3.15385H36.8462C37.3984 3.15385 37.8462 3.60156 37.8462 4.15385V36.8462C37.8462 37.3984 37.3984 37.8462 36.8462 37.8462H23.0769Z"/>
</mask>
<path d="M37.8462 0H3.15385C2.31769 0.000959926 1.51605 0.333547 0.9248 0.9248C0.333547 1.51605 0.000959926 2.31769 0 3.15385V37.8462C0.000959926 38.6823 0.333547 39.4839 0.9248 40.0752C1.51605 40.6665 2.31769 40.999 3.15385 41H37.8462C38.6823 40.999 39.4839 40.6665 40.0752 40.0752C40.6665 39.4839 40.999 38.6823 41 37.8462V3.15385C40.999 2.31769 40.6665 1.51605 40.0752 0.9248C39.4839 0.333547 38.6823 0.000959926 37.8462 0ZM17.9231 3.15385C18.4754 3.15385 18.9231 3.60156 18.9231 4.15385V17.9231C18.9231 18.4754 18.4754 18.9231 17.9231 18.9231H4.15385C3.60156 18.9231 3.15385 18.4754 3.15385 17.9231V4.15385C3.15385 3.60156 3.60156 3.15385 4.15385 3.15385H17.9231ZM3.15385 23.0769C3.15385 22.5246 3.60156 22.0769 4.15385 22.0769H17.9231C18.4754 22.0769 18.9231 22.5246 18.9231 23.0769V36.8462C18.9231 37.3984 18.4754 37.8462 17.9231 37.8462H4.15385C3.60156 37.8462 3.15385 37.3984 3.15385 36.8462V23.0769ZM23.0769 37.8462C22.5246 37.8462 22.0769 37.3984 22.0769 36.8462V4.15385C22.0769 3.60156 22.5246 3.15385 23.0769 3.15385H36.8462C37.3984 3.15385 37.8462 3.60156 37.8462 4.15385V36.8462C37.8462 37.3984 37.3984 37.8462 36.8462 37.8462H23.0769Z" fill="#007E7D"/>
<path d="M37.8462 0L37.8542 -7H37.8462V0ZM3.15385 0L3.15385 -7L3.14581 -7L3.15385 0ZM0 3.15385L-7 3.14581V3.15385H0ZM0 37.8462L-7 37.8462L-7 37.8542L0 37.8462ZM3.15385 41L3.14581 48H3.15385V41ZM37.8462 41L37.8462 48L37.8542 48L37.8462 41ZM41 37.8462L48 37.8542V37.8462H41ZM41 3.15385L48 3.15385L48 3.14581L41 3.15385ZM37.8462 -7H3.15385V7H37.8462V-7ZM3.14581 -7C0.455924 -6.99691 -2.12291 -5.92699 -4.02495 -4.02495L5.87455 5.87455C5.15501 6.59408 4.17945 6.99883 3.16188 7L3.14581 -7ZM-4.02495 -4.02495C-5.92699 -2.12291 -6.99691 0.455924 -7 3.14581L7 3.16188C6.99883 4.17945 6.59408 5.15501 5.87455 5.87455L-4.02495 -4.02495ZM-7 3.15385V37.8462H7V3.15385H-7ZM-7 37.8542C-6.99691 40.5441 -5.92699 43.1229 -4.02495 45.0249L5.87455 35.1255C6.59408 35.845 6.99883 36.8205 7 37.8381L-7 37.8542ZM-4.02495 45.0249C-2.1229 46.927 0.455928 47.9969 3.14581 48L3.16188 34C4.17945 34.0012 5.15501 34.4059 5.87455 35.1255L-4.02495 45.0249ZM3.15385 48H37.8462V34H3.15385V48ZM37.8542 48C40.5441 47.9969 43.1229 46.927 45.0249 45.0249L35.1255 35.1255C35.845 34.4059 36.8206 34.0012 37.8381 34L37.8542 48ZM45.0249 45.0249C46.927 43.1229 47.9969 40.5441 48 37.8542L34 37.8381C34.0012 36.8206 34.4059 35.845 35.1255 35.1255L45.0249 45.0249ZM48 37.8462V3.15385H34V37.8462H48ZM48 3.14581C47.9969 0.455928 46.927 -2.1229 45.0249 -4.02495L35.1255 5.87455C34.4059 5.15501 34.0012 4.17945 34 3.16188L48 3.14581ZM45.0249 -4.02495C43.1229 -5.92699 40.5441 -6.99691 37.8542 -7L37.8381 7C36.8205 6.99883 35.845 6.59408 35.1255 5.87455L45.0249 -4.02495ZM11.9231 4.15385V17.9231H25.9231V4.15385H11.9231ZM17.9231 11.9231H4.15385V25.9231H17.9231V11.9231ZM10.1538 17.9231V4.15385H-3.84615V17.9231H10.1538ZM4.15385 10.1538H17.9231V-3.84615H4.15385V10.1538ZM4.15385 29.0769H17.9231V15.0769H4.15385V29.0769ZM11.9231 23.0769V36.8462H25.9231V23.0769H11.9231ZM17.9231 30.8462H4.15385V44.8462H17.9231V30.8462ZM10.1538 36.8462V23.0769H-3.84615V36.8462H10.1538ZM29.0769 36.8462V4.15385H15.0769V36.8462H29.0769ZM23.0769 10.1538H36.8462V-3.84615H23.0769V10.1538ZM30.8462 4.15385V36.8462H44.8462V4.15385H30.8462ZM36.8462 30.8462H23.0769V44.8462H36.8462V30.8462ZM30.8462 36.8462C30.8462 33.5325 33.5324 30.8462 36.8462 30.8462V44.8462C41.2644 44.8462 44.8462 41.2644 44.8462 36.8462H30.8462ZM36.8462 10.1538C33.5324 10.1538 30.8462 7.46756 30.8462 4.15385H44.8462C44.8462 -0.264432 41.2644 -3.84615 36.8462 -3.84615V10.1538ZM29.0769 4.15385C29.0769 7.46755 26.3906 10.1538 23.0769 10.1538V-3.84615C18.6586 -3.84615 15.0769 -0.26442 15.0769 4.15385H29.0769ZM15.0769 36.8462C15.0769 41.2644 18.6586 44.8462 23.0769 44.8462V30.8462C26.3906 30.8462 29.0769 33.5324 29.0769 36.8462H15.0769ZM4.15385 30.8462C7.46755 30.8462 10.1538 33.5324 10.1538 36.8462H-3.84615C-3.84615 41.2644 -0.264432 44.8462 4.15385 44.8462V30.8462ZM11.9231 36.8462C11.9231 33.5324 14.6094 30.8462 17.9231 30.8462V44.8462C22.3414 44.8462 25.9231 41.2644 25.9231 36.8462H11.9231ZM17.9231 29.0769C14.6094 29.0769 11.9231 26.3906 11.9231 23.0769H25.9231C25.9231 18.6586 22.3414 15.0769 17.9231 15.0769V29.0769ZM4.15385 15.0769C-0.264432 15.0769 -3.84615 18.6586 -3.84615 23.0769H10.1538C10.1538 26.3906 7.46755 29.0769 4.15385 29.0769V15.0769ZM10.1538 4.15385C10.1538 7.46755 7.46755 10.1538 4.15385 10.1538V-3.84615C-0.264432 -3.84615 -3.84615 -0.264432 -3.84615 4.15385H10.1538ZM4.15385 11.9231C7.46755 11.9231 10.1538 14.6094 10.1538 17.9231H-3.84615C-3.84615 22.3414 -0.264432 25.9231 4.15385 25.9231V11.9231ZM11.9231 17.9231C11.9231 14.6094 14.6094 11.9231 17.9231 11.9231V25.9231C22.3414 25.9231 25.9231 22.3414 25.9231 17.9231H11.9231ZM25.9231 4.15385C25.9231 -0.264432 22.3414 -3.84615 17.9231 -3.84615V10.1538C14.6094 10.1538 11.9231 7.46755 11.9231 4.15385H25.9231Z" fill="#007E7D" mask="url(#path-9-inside-5_2_305)"/>
</svg>
