<svg width="42" height="38" viewBox="0 0 42 38" fill="none" xmlns="http://www.w3.org/2000/svg">
<g id="Group 116">
<path id="Vector" d="M22.3306 26.9659V29.075C22.3306 29.2422 22.2976 29.4075 22.2335 29.562C22.1697 29.7165 22.0758 29.8571 21.9577 29.9753C21.8395 30.0936 21.6991 30.1869 21.5448 30.251C21.3903 30.3148 21.2246 30.3479 21.0574 30.3479C20.8904 30.3479 20.7247 30.3148 20.5703 30.251C20.4158 30.1869 20.2756 30.0936 20.1574 29.9753C20.0392 29.8571 19.9454 29.7165 19.8815 29.562C19.8175 29.4075 19.7844 29.2422 19.7844 29.075V26.9092C18.9414 26.7707 18.1343 26.466 17.4102 26.0126C16.686 25.5591 16.0593 24.9659 15.5665 24.2679C15.387 24.04 15.287 23.76 15.2815 23.47C15.2839 23.307 15.319 23.1461 15.3848 22.9969C15.4505 22.8478 15.5457 22.7135 15.6644 22.6017C15.7832 22.49 15.9231 22.4036 16.0761 22.3471C16.229 22.2905 16.3917 22.2653 16.5545 22.2729C16.7156 22.2732 16.8748 22.3076 17.022 22.373C17.1693 22.4385 17.3011 22.5339 17.4094 22.6532C18.022 23.4465 18.8449 24.052 19.7844 24.401V19.556C17.2574 18.568 15.9845 17.0859 15.9845 15.1669C16.0226 14.1395 16.4264 13.1596 17.1231 12.4036C17.8198 11.6477 18.7636 11.1656 19.7844 11.044V8.95382C19.7844 8.78666 19.8175 8.6212 19.8815 8.46677C19.9454 8.31232 20.0392 8.17214 20.1574 8.05392C20.2756 7.9357 20.4158 7.8419 20.5703 7.77793C20.7247 7.71395 20.8904 7.68097 21.0574 7.68097C21.2246 7.68097 21.3903 7.71395 21.5448 7.77793C21.6991 7.8419 21.8395 7.9357 21.9577 8.05392C22.0758 8.17214 22.1697 8.31232 22.2335 8.46677C22.2976 8.6212 22.3306 8.78666 22.3306 8.95382V11.025C23.0376 11.1358 23.715 11.388 24.3222 11.7667C24.9294 12.1454 25.454 12.6426 25.8644 13.2288C26.0455 13.4425 26.1523 13.7096 26.1684 13.989C26.1736 14.1528 26.146 14.3157 26.0875 14.4688C26.0288 14.6217 25.9404 14.7618 25.8272 14.8801C25.714 14.9987 25.5783 15.0935 25.4282 15.1591C25.2781 15.2246 25.1164 15.2596 24.9524 15.262C24.7811 15.2573 24.6125 15.2159 24.4584 15.1404C24.3043 15.065 24.1683 14.9575 24.0594 14.825C23.6065 14.259 23.0093 13.826 22.3306 13.5712V17.8462L22.8056 18.0359C25.2186 18.9859 26.7196 20.354 26.7196 22.52C26.6913 23.6806 26.2214 24.7866 25.406 25.6127C24.5905 26.4388 23.4906 26.9225 22.3306 26.9659ZM19.7844 16.744V13.6469C19.4778 13.758 19.2139 13.9628 19.0298 14.2322C18.8458 14.5015 18.7508 14.8218 18.7586 15.1479C18.7529 15.4855 18.8472 15.8176 19.0298 16.1015C19.2123 16.3855 19.4749 16.609 19.7844 16.744ZM23.9454 22.577C23.9454 21.665 23.3186 21.114 22.3306 20.677V24.477C22.7836 24.4085 23.1966 24.1782 23.4934 23.8291C23.7902 23.4799 23.9508 23.0353 23.9454 22.577Z" fill="#4885ED"/>
<path id="Vector_2" d="M32.4 2H9.6C7.58435 2 5.65127 2.80083 4.22598 4.2261C2.8007 5.65138 2 7.58435 2 9.6V28.6001C2 30.6156 2.8007 32.5486 4.22598 33.9738C5.65127 35.3992 7.58435 36.2001 9.6 36.2001H32.4C34.4157 36.2001 36.3488 35.3992 37.774 33.9738C39.1993 32.5486 40 30.6156 40 28.6001V9.6C40 7.58435 39.1993 5.65138 37.774 4.2261C36.3488 2.80083 34.4157 2 32.4 2Z" stroke="#4885ED" stroke-width="3.6" stroke-linecap="round" stroke-linejoin="round"/>
</g>
</svg>
