<svg width="42" height="38" viewBox="0 0 42 38" fill="none" xmlns="http://www.w3.org/2000/svg">
<path d="M22.3306 26.9658V29.075C22.3306 29.2422 22.2976 29.4075 22.2335 29.562C22.1697 29.7164 22.0758 29.857 21.9577 29.9752C21.8395 30.0936 21.6991 30.1869 21.5448 30.2509C21.3903 30.3147 21.2246 30.3478 21.0574 30.3478C20.8904 30.3478 20.7247 30.3147 20.5703 30.2509C20.4158 30.1869 20.2756 30.0936 20.1574 29.9752C20.0392 29.857 19.9454 29.7164 19.8815 29.562C19.8175 29.4075 19.7844 29.2422 19.7844 29.075V26.9092C18.9414 26.7707 18.1343 26.4659 17.4102 26.0126C16.686 25.559 16.0593 24.9659 15.5665 24.2678C15.387 24.04 15.287 23.7599 15.2815 23.47C15.2839 23.307 15.319 23.146 15.3848 22.9969C15.4505 22.8477 15.5457 22.7134 15.6644 22.6017C15.7832 22.49 15.9231 22.4035 16.0761 22.3471C16.229 22.2905 16.3917 22.2652 16.5545 22.2728C16.7156 22.2732 16.8748 22.3076 17.022 22.3729C17.1693 22.4385 17.3011 22.5339 17.4094 22.6532C18.022 23.4464 18.8449 24.052 19.7844 24.401V19.556C17.2574 18.568 15.9845 17.0858 15.9845 15.1668C16.0226 14.1395 16.4264 13.1595 17.1231 12.4035C17.8198 11.6476 18.7636 11.1655 19.7844 11.0439V8.95376C19.7844 8.78659 19.8175 8.62114 19.8815 8.46671C19.9454 8.31226 20.0392 8.17208 20.1574 8.05386C20.2756 7.93564 20.4158 7.84184 20.5703 7.77787C20.7247 7.71389 20.8904 7.68091 21.0574 7.68091C21.2246 7.68091 21.3903 7.71389 21.5448 7.77787C21.6991 7.84184 21.8395 7.93564 21.9577 8.05386C22.0758 8.17208 22.1697 8.31226 22.2335 8.46671C22.2976 8.62114 22.3306 8.78659 22.3306 8.95376V11.0249C23.0376 11.1357 23.715 11.3879 24.3222 11.7666C24.9294 12.1454 25.454 12.6426 25.8644 13.2288C26.0455 13.4424 26.1523 13.7095 26.1684 13.989C26.1736 14.1528 26.146 14.3156 26.0875 14.4687C26.0288 14.6217 25.9404 14.7617 25.8272 14.8801C25.714 14.9986 25.5783 15.0935 25.4282 15.159C25.2781 15.2246 25.1164 15.2595 24.9524 15.262C24.7811 15.2572 24.6125 15.2158 24.4584 15.1404C24.3043 15.065 24.1683 14.9574 24.0594 14.825C23.6065 14.259 23.0093 13.826 22.3306 13.5712V17.8462L22.8056 18.0358C25.2186 18.9858 26.7196 20.354 26.7196 22.52C26.6913 23.6805 26.2214 24.7865 25.406 25.6126C24.5905 26.4387 23.4906 26.9225 22.3306 26.9658ZM19.7844 16.744V13.6468C19.4778 13.7579 19.2139 13.9628 19.0298 14.2322C18.8458 14.5014 18.7508 14.8218 18.7586 15.1478C18.7529 15.4854 18.8472 15.8175 19.0298 16.1014C19.2123 16.3855 19.4749 16.6089 19.7844 16.744ZM23.9454 22.577C23.9454 21.665 23.3186 21.114 22.3306 20.677V24.477C22.7836 24.4084 23.1966 24.1781 23.4934 23.8291C23.7902 23.4799 23.9508 23.0353 23.9454 22.577Z" fill="#007E7D"/>
<path d="M32.4 2H9.6C7.58435 2 5.65127 2.80083 4.22598 4.2261C2.8007 5.65138 2 7.58435 2 9.6V28.6001C2 30.6156 2.8007 32.5486 4.22598 33.9738C5.65127 35.3992 7.58435 36.2001 9.6 36.2001H32.4C34.4157 36.2001 36.3488 35.3992 37.774 33.9738C39.1993 32.5486 40 30.6156 40 28.6001V9.6C40 7.58435 39.1993 5.65138 37.774 4.2261C36.3488 2.80083 34.4157 2 32.4 2Z" stroke="#007E7D" stroke-width="3.6" stroke-linecap="round" stroke-linejoin="round"/>
</svg>
