<svg width="42" height="40" viewBox="0 0 42 40" fill="none" xmlns="http://www.w3.org/2000/svg">
<path d="M39.4059 17.0933L37.5427 25.0407C35.9456 31.9043 32.7895 34.6802 26.8575 34.1098C25.9069 34.0337 24.8802 33.8626 23.7774 33.5964L20.5833 32.8359C12.6549 30.9537 10.2023 27.037 12.0655 19.0897L13.9288 11.1234C14.309 9.50727 14.7653 8.10033 15.3357 6.94055C17.5603 2.33946 21.3438 1.10363 27.6941 2.60564L30.8692 3.34714C38.8356 5.21039 41.2692 9.14603 39.4059 17.0933Z" stroke="#007E7D" stroke-width="3" stroke-linecap="round" stroke-linejoin="round"/>
<path d="M26.8574 34.1097C25.6786 34.9083 24.1956 35.5737 22.3894 36.1631L19.3854 37.1518C11.8372 39.5854 7.86356 37.551 5.41092 30.003L2.97728 22.4929C0.543647 14.9448 2.559 10.9521 10.1071 8.51849L13.1111 7.52983C13.8906 7.28266 14.6321 7.07352 15.3356 6.94043C14.7652 8.10021 14.3089 9.50715 13.9286 11.1232L12.0654 19.0896C10.2021 27.037 12.6548 30.9536 20.5832 32.8359L23.7773 33.5964C24.88 33.8626 25.9067 34.0337 26.8574 34.1097Z" stroke="#007E7D" stroke-width="3" stroke-linecap="round" stroke-linejoin="round"/>
<path d="M22.2563 13.4619L31.4775 15.8005" stroke="#007E7D" stroke-width="3" stroke-linecap="round" stroke-linejoin="round"/>
<path d="M20.3931 20.8198L25.9068 22.2268" stroke="#007E7D" stroke-width="3" stroke-linecap="round" stroke-linejoin="round"/>
</svg>
