<svg width="42" height="40" viewBox="0 0 42 40" fill="none" xmlns="http://www.w3.org/2000/svg">
<path d="M39.4061 17.0933L37.5428 25.0407C35.9457 31.9043 32.7896 34.6802 26.8576 34.1098C25.907 34.0337 24.8803 33.8626 23.7776 33.5964L20.5834 32.8359C12.655 30.9537 10.2024 27.037 12.0656 19.0897L13.9289 11.1234C14.3091 9.50727 14.7654 8.10033 15.3358 6.94055C17.5604 2.33946 21.3439 1.10363 27.6942 2.60564L30.8693 3.34714C38.8357 5.21039 41.2693 9.14603 39.4061 17.0933Z" stroke="#4885ED" stroke-width="3" stroke-linecap="round" stroke-linejoin="round"/>
<path d="M26.8574 34.1098C25.6786 34.9084 24.1956 35.5738 22.3894 36.1632L19.3854 37.1519C11.8372 39.5855 7.86356 37.5511 5.41092 30.0031L2.97728 22.493C0.543647 14.9449 2.559 10.9522 10.1071 8.51861L13.1111 7.52995C13.8906 7.28278 14.6321 7.07364 15.3356 6.94055C14.7652 8.10033 14.3089 9.50728 13.9286 11.1234L12.0654 19.0897C10.2021 27.0371 12.6548 30.9537 20.5832 32.836L23.7773 33.5965C24.88 33.8627 25.9067 34.0338 26.8574 34.1098Z" stroke="#4885ED" stroke-width="3" stroke-linecap="round" stroke-linejoin="round"/>
<path d="M22.2563 13.4619L31.4775 15.8005" stroke="#4885ED" stroke-width="3" stroke-linecap="round" stroke-linejoin="round"/>
<path d="M20.3931 20.8198L25.9068 22.2268" stroke="#4885ED" stroke-width="3" stroke-linecap="round" stroke-linejoin="round"/>
</svg>
