<svg xmlns="http://www.w3.org/2000/svg" viewBox="0 0 69.46 15.22"><defs><style>.cls-1{fill:#fff;}</style></defs><g id="Camada_2" data-name="Camada 2"><g id="Camada_1-2" data-name="Camada 1"><path class="cls-1" d="M69.46,3.74Z"/><path class="cls-1" d="M20.93,13a3.15,3.15,0,0,1-2.25-.94l3.21-1.38.88-.38,3.36-1.45a5.21,5.21,0,0,0-.8-2,5.3,5.3,0,1,0,.86,3.54L23.6,11.57A3.16,3.16,0,0,1,20.93,13M17.76,9.86a3.17,3.17,0,0,1,5.55-2.09l-5.53,2.39c0-.1,0-.2,0-.3"/><path class="cls-1" d="M34.32,9.28a12.32,12.32,0,0,0-2-.44,8.71,8.71,0,0,1-1.47-.33,1.43,1.43,0,0,1-.62-.37.9.9,0,0,1-.16-.57,1,1,0,0,1,.4-.8,2.1,2.1,0,0,1,1.29-.33,2.55,2.55,0,0,1,1.45.36,1.08,1.08,0,0,1,.52.89l0,.27h2.33V7.67A2.67,2.67,0,0,0,35.5,6,3.59,3.59,0,0,0,34,4.9a5.94,5.94,0,0,0-2.22-.39,5.48,5.48,0,0,0-2.18.39A3.16,3.16,0,0,0,28.16,6a2.83,2.83,0,0,0-.47,1.59,2.47,2.47,0,0,0,1.12,2.21,6.84,6.84,0,0,0,2.79.9A11.47,11.47,0,0,1,33,11a1.74,1.74,0,0,1,.73.39A.89.89,0,0,1,34,12a1.06,1.06,0,0,1-.49.93,2.87,2.87,0,0,1-1.6.36,3.41,3.41,0,0,1-1.31-.23,1.72,1.72,0,0,1-.79-.58,1.29,1.29,0,0,1-.27-.8v-.28H27.2v.29a3,3,0,0,0,.54,1.73,3.76,3.76,0,0,0,1.61,1.29,6.06,6.06,0,0,0,2.52.48,7.16,7.16,0,0,0,2.32-.35,3.58,3.58,0,0,0,1.61-1.11A2.87,2.87,0,0,0,36.39,12a2.53,2.53,0,0,0-.6-1.74,3.4,3.4,0,0,0-1.47-.93"/><path class="cls-1" d="M40.77.63H38.42V3.86h-1.2V6h1.2v4.95a4.37,4.37,0,0,0,1,3.36,3.83,3.83,0,0,0,2.63.92h.85V13.15h-.48a1.71,1.71,0,0,1-1.23-.44A2.33,2.33,0,0,1,40.77,11V6h2.17V3.86H40.77Z"/><path class="cls-1" d="M49.56,4.64a5.29,5.29,0,1,0,3.17,9.53v1.05h2.12V9.66h0a5.3,5.3,0,0,0-5.29-5m0,8.46a3.17,3.17,0,1,1,3.17-3.17,3.17,3.17,0,0,1-3.17,3.17"/><path class="cls-1" d="M61.58,4.66a5.28,5.28,0,1,0,5.27,5.27,5.27,5.27,0,0,0-5.27-5.27m0,8.43a3.16,3.16,0,1,1,3.15-3.16,3.15,3.15,0,0,1-3.15,3.16"/><path class="cls-1" d="M48.2,3.35c0-.63.23-1,.59-1a2,2,0,0,1,1,.41,3,3,0,0,0,1.4.47c1.06,0,1.55-.79,1.53-2.27H51.62c0,.74-.27.94-.63.94a2.26,2.26,0,0,1-.94-.38A3,3,0,0,0,48.65,1c-1,0-1.58.87-1.53,2.34Z"/><path class="cls-1" d="M7.45,8.42h4.62V11A6.24,6.24,0,0,1,7.61,13a5.1,5.1,0,0,1-3.77-1.51,5.2,5.2,0,0,1-1.5-3.83A5.27,5.27,0,0,1,3.86,3.75,5.18,5.18,0,0,1,7.67,2.22a5.72,5.72,0,0,1,4.45,1.93L13.69,2.6a8,8,0,0,0-6-2.6A7.46,7.46,0,0,0,2.22,2.17,7.18,7.18,0,0,0,0,7.61a7.3,7.3,0,0,0,7.55,7.55,8.66,8.66,0,0,0,6.64-3V6.36H7.45Z"/></g></g></svg>