<svg xmlns="http://www.w3.org/2000/svg" viewBox="0 0 91.26 18.49"><defs><style>.cls-1{fill:#fff;}</style></defs><g id="Camada_2" data-name="Camada 2"><g id="Camada_1-2" data-name="Camada 1"><path class="cls-1" d="M91.26,6.21Z"/><path class="cls-1" d="M42.73,15.5a3.15,3.15,0,0,1-2.25-.94l3.21-1.38.88-.38,3.36-1.45a5.39,5.39,0,0,0-.81-2A5.29,5.29,0,1,0,48,12.93L45.4,14a3.17,3.17,0,0,1-2.67,1.46m-3.17-3.16a3.17,3.17,0,0,1,5.55-2.1l-5.54,2.39c0-.1,0-.2,0-.29"/><path class="cls-1" d="M56.11,11.75a11.87,11.87,0,0,0-2-.44A8.55,8.55,0,0,1,52.63,11a1.32,1.32,0,0,1-.62-.37.9.9,0,0,1-.16-.57,1,1,0,0,1,.4-.79,2,2,0,0,1,1.28-.34A2.56,2.56,0,0,1,55,9.27a1.13,1.13,0,0,1,.52.89v.27h2.34v-.29a2.67,2.67,0,0,0-.56-1.65,3.56,3.56,0,0,0-1.55-1.12A5.9,5.9,0,0,0,53.53,7a5.48,5.48,0,0,0-2.18.39A3.08,3.08,0,0,0,50,8.49a2.75,2.75,0,0,0-.47,1.59,2.47,2.47,0,0,0,1.11,2.21,6.89,6.89,0,0,0,2.8.9,13.66,13.66,0,0,1,1.43.3,1.63,1.63,0,0,1,.72.39.85.85,0,0,1,.22.63,1.06,1.06,0,0,1-.49.93,2.86,2.86,0,0,1-1.59.36,3.41,3.41,0,0,1-1.31-.23,1.67,1.67,0,0,1-.79-.58,1.36,1.36,0,0,1-.28-.8v-.28H49v.29a3,3,0,0,0,.55,1.73,3.7,3.7,0,0,0,1.61,1.29,6,6,0,0,0,2.52.48A7.06,7.06,0,0,0,56,17.34a3.56,3.56,0,0,0,1.62-1.11,2.86,2.86,0,0,0,.58-1.81,2.49,2.49,0,0,0-.6-1.74,3.34,3.34,0,0,0-1.47-.93"/><path class="cls-1" d="M62.57,3.1H60.22V6.33H59V8.46h1.21v4.95a4.37,4.37,0,0,0,1,3.36,3.82,3.82,0,0,0,2.63.92h.84V15.62h-.48A1.73,1.73,0,0,1,63,15.18a2.33,2.33,0,0,1-.45-1.68v-5h2.16V6.33H62.57Z"/><path class="cls-1" d="M71.36,7.11a5.29,5.29,0,1,0,3.17,9.53v1.05h2.12V12.13h0a5.28,5.28,0,0,0-5.28-5m0,8.46a3.17,3.17,0,1,1,3.17-3.17,3.17,3.17,0,0,1-3.17,3.17"/><path class="cls-1" d="M83.37,7.13a5.28,5.28,0,1,0,5.28,5.27,5.27,5.27,0,0,0-5.28-5.27m0,8.43a3.16,3.16,0,1,1,3.16-3.16,3.15,3.15,0,0,1-3.16,3.16"/><path class="cls-1" d="M70,5.82c0-.63.22-1,.58-1a2,2,0,0,1,1,.41,3,3,0,0,0,1.4.47c1,0,1.55-.79,1.53-2.27H73.42c0,.74-.27.94-.63.94a2.29,2.29,0,0,1-1-.38,3,3,0,0,0-1.39-.49c-1,0-1.58.87-1.53,2.34Z"/><path class="cls-1" d="M29.25,10.89h4.61v2.62a6.22,6.22,0,0,1-4.46,1.91,5.1,5.1,0,0,1-3.76-1.51,5.21,5.21,0,0,1-1.51-3.83,5.28,5.28,0,0,1,1.53-3.86,5.16,5.16,0,0,1,3.8-1.52,5.73,5.73,0,0,1,4.46,1.92l1.57-1.55a8,8,0,0,0-6.05-2.6A7.44,7.44,0,0,0,24,4.64a7.18,7.18,0,0,0-2.22,5.44,7.3,7.3,0,0,0,7.54,7.55,8.63,8.63,0,0,0,6.64-3V8.83H29.25Z"/><path class="cls-1" d="M15.56,2.5a9.24,9.24,0,1,0-6.31,16,9.16,9.16,0,0,0,2.41-.32h0a9.16,9.16,0,0,1-2.31-.55c-4.16-1.6-6.86-7.18-5-11.34S11.51,1.75,15.56,2.5"/><path class="cls-1" d="M16.88,14.46a9.18,9.18,0,0,0,1.61-5.21,9.48,9.48,0,0,0-.44-2.84l0,0a8.26,8.26,0,0,0-.34-.87A4.51,4.51,0,0,0,15.43,3.2c-2.25-.41-5.79-.69-8.26.91a5.54,5.54,0,1,1-1.46,9.4A8,8,0,0,0,9.61,17a8.3,8.3,0,0,0,2.13.5l.47.05a6.84,6.84,0,0,0,4.67-3.05"/></g></g></svg>