<svg xmlns="http://www.w3.org/2000/svg" viewBox="0 0 123.44 21.37"><defs><style>.cls-1{fill:#fff;}</style></defs><g id="Camada_2" data-name="Camada 2"><g id="Camada_1-2" data-name="Camada 1"><path class="cls-1" d="M94,7.73Z"/><path class="cls-1" d="M45.45,17a3.15,3.15,0,0,1-2.25-.94l3.21-1.38.88-.38,3.36-1.45a5.16,5.16,0,0,0-.81-2,5.28,5.28,0,1,0,.87,3.54l-2.59,1.11A3.16,3.16,0,0,1,45.45,17m-3.17-3.17a3.17,3.17,0,0,1,5.55-2.09L42.3,14.15c0-.1,0-.2,0-.3"/><path class="cls-1" d="M58.84,13.27a12.32,12.32,0,0,0-2-.44,8.71,8.71,0,0,1-1.47-.33,1.37,1.37,0,0,1-.62-.37.9.9,0,0,1-.16-.57,1,1,0,0,1,.4-.8,2.1,2.1,0,0,1,1.29-.33,2.55,2.55,0,0,1,1.45.36,1.08,1.08,0,0,1,.52.89l0,.27h2.33v-.29A2.67,2.67,0,0,0,60,10a3.59,3.59,0,0,0-1.54-1.12,5.94,5.94,0,0,0-2.22-.4,5.44,5.44,0,0,0-2.18.4A3.1,3.1,0,0,0,52.68,10a2.88,2.88,0,0,0-.47,1.6,2.42,2.42,0,0,0,1.12,2.2,6.69,6.69,0,0,0,2.79.91,9.9,9.9,0,0,1,1.43.3,1.54,1.54,0,0,1,.72.39.83.83,0,0,1,.22.63A1,1,0,0,1,58,17a2.8,2.8,0,0,1-1.6.37,3.41,3.41,0,0,1-1.31-.23,1.79,1.79,0,0,1-.79-.58,1.29,1.29,0,0,1-.27-.8v-.28H51.72v.29a3,3,0,0,0,.54,1.73,3.77,3.77,0,0,0,1.61,1.29,6.06,6.06,0,0,0,2.52.48,6.89,6.89,0,0,0,2.32-.36,3.43,3.43,0,0,0,1.61-1.11,2.82,2.82,0,0,0,.59-1.8,2.53,2.53,0,0,0-.6-1.74,3.37,3.37,0,0,0-1.47-.93"/><path class="cls-1" d="M65.29,4.62H62.94V7.85h-1.2V10h1.2v4.95c0,1.63.34,2.72,1,3.35a3.79,3.79,0,0,0,2.63.93h.85V17.13H67a1.7,1.7,0,0,1-1.22-.43A2.33,2.33,0,0,1,65.29,15V10h2.17V7.85H65.29Z"/><path class="cls-1" d="M74.08,8.63a5.29,5.29,0,1,0,3.17,9.53v1.05h2.12V13.64h0a5.3,5.3,0,0,0-5.29-5m0,8.46a3.17,3.17,0,1,1,3.17-3.17,3.17,3.17,0,0,1-3.17,3.17"/><path class="cls-1" d="M86.1,8.65a5.27,5.27,0,1,0,5.27,5.27A5.27,5.27,0,0,0,86.1,8.65m0,8.43a3.16,3.16,0,1,1,3.15-3.16,3.15,3.15,0,0,1-3.15,3.16"/><path class="cls-1" d="M72.72,7.34c0-.63.22-1,.58-1a2,2,0,0,1,1,.41,3,3,0,0,0,1.4.47c1.06,0,1.55-.79,1.53-2.27H76.14c0,.74-.27.94-.63.94a2.26,2.26,0,0,1-.94-.38,3,3,0,0,0-1.4-.5c-1,0-1.58.88-1.53,2.35Z"/><path class="cls-1" d="M32,12.41h4.61V15a6.24,6.24,0,0,1-4.45,1.91,5.1,5.1,0,0,1-3.77-1.51,5.2,5.2,0,0,1-1.5-3.83,5.27,5.27,0,0,1,1.52-3.86,5.18,5.18,0,0,1,3.81-1.53,5.72,5.72,0,0,1,4.45,1.93l1.57-1.55a8,8,0,0,0-6-2.6,7.45,7.45,0,0,0-5.43,2.16,7.21,7.21,0,0,0-2.22,5.45,7.29,7.29,0,0,0,7.55,7.54,8.61,8.61,0,0,0,6.63-3V10.35H32Z"/><path class="cls-1" d="M109.06,14.29a2.8,2.8,0,1,1-2.79,2.8,2.8,2.8,0,0,1,2.79-2.8"/><path class="cls-1" d="M18,2.89A10.68,10.68,0,1,0,13.47,21h0a10.53,10.53,0,0,1-2.66-.63C6,18.52,2.88,12.06,5.08,7.26S13.3,2,18,2.89"/><path class="cls-1" d="M19.51,16.71a10.72,10.72,0,0,0,1.35-9.3.14.14,0,0,1,0-.06c-.12-.35-.24-.68-.39-1A5.25,5.25,0,0,0,17.84,3.7c-2.61-.48-6.69-.79-9.56,1A6.4,6.4,0,1,1,6.6,15.61a9.25,9.25,0,0,0,4.5,4,10.06,10.06,0,0,0,2.46.58l.55.06a7.92,7.92,0,0,0,5.4-3.53"/><path class="cls-1" d="M102.85,7.68h-5.2l-.53,3.51a7.71,7.71,0,0,1,1.11-.08,5.81,5.81,0,0,1,2.94.73,3.88,3.88,0,0,1,2,3.5C103.12,18,101,20,98.05,20a6.67,6.67,0,0,1-3.4-.84l.46-1.4a6.16,6.16,0,0,0,2.91.75,3,3,0,0,0,3.24-3c0-1.76-1.2-3-3.93-3a14.77,14.77,0,0,0-1.89.15l.88-6.55h6.53Z"/><path class="cls-1" d="M122.11,7.63a6.86,6.86,0,0,0-1.37.08,5.48,5.48,0,0,0-4.69,4.8h.06A4,4,0,0,1,119.37,11c2.39,0,4.07,1.72,4.07,4.36A4.52,4.52,0,0,1,119,20.07c-2.88,0-4.77-2.24-4.77-5.75a8.49,8.49,0,0,1,2.28-6.09,7.31,7.31,0,0,1,4.32-2,8.09,8.09,0,0,1,1.33-.11Zm-.52,7.79c0-1.94-1.1-3.1-2.78-3.1A3,3,0,0,0,116.19,14a1.61,1.61,0,0,0-.21.81c0,2.23,1.06,3.87,3,3.87C120.53,18.66,121.59,17.35,121.59,15.42Z"/></g></g></svg>