<svg width="234" height="34" viewBox="0 0 234 34" fill="none" xmlns="http://www.w3.org/2000/svg">
<path d="M24.8937 3.98911C23.0122 2.22904 20.7035 0.99101 18.1964 0.397618C15.6892 -0.195774 13.0705 -0.123937 10.5997 0.606014C8.12884 1.33597 5.89153 2.69871 4.10934 4.55928C2.32715 6.41985 1.0619 8.71371 0.438904 11.2137C-0.184093 13.7136 -0.143227 16.333 0.557456 18.8123C1.25814 21.2916 2.59433 23.5449 4.4337 25.3489C6.27307 27.153 8.5518 28.4453 11.0442 29.0978C13.5366 29.7503 16.1563 29.7404 18.6437 29.0691C17.3945 28.9266 16.1683 28.6276 14.9937 28.1791C8.29371 25.6191 3.99371 16.6891 6.99371 10.0391C10.1537 3.19911 18.4037 2.78911 24.8837 3.98911" fill="#003E59"/>
<path d="M26.994 23.1091C28.2665 21.2485 29.0965 19.1216 29.4206 16.8909C29.7448 14.6602 29.5544 12.3849 28.864 10.2391V10.1591C28.704 9.67914 28.524 9.21914 28.324 8.76914C27.6058 7.15073 26.3224 5.84954 24.714 5.10914C21.074 4.44914 15.424 3.98914 11.454 6.56914C12.9047 5.97949 14.4859 5.78531 16.0361 6.00642C17.5863 6.22753 19.0502 6.85601 20.2782 7.82771C21.5061 8.79942 22.4543 10.0795 23.0259 11.5374C23.5975 12.9953 23.772 14.5788 23.5316 16.1262C23.2913 17.6735 22.6446 19.1294 21.6577 20.3452C20.6708 21.5611 19.379 22.4932 17.9141 23.0467C16.4493 23.6001 14.8638 23.7549 13.3195 23.4953C11.7752 23.2357 10.3275 22.5711 9.12402 21.5691C10.5303 24.0535 12.7267 25.9965 15.364 27.0891C16.4587 27.5014 17.6011 27.7736 18.764 27.8991L19.514 27.9791C19.514 27.9791 23.734 27.6991 26.994 23.0891" fill="#003E59"/>
<path d="M71.104 24.3491C70.4045 24.3501 69.7117 24.2118 69.0662 23.9422C68.4206 23.6727 67.8352 23.2773 67.344 22.7791L72.714 20.4691L74.184 19.8391L79.794 17.4091C79.3776 15.2185 78.1487 13.2662 76.3535 11.9434C74.5584 10.6206 72.3297 10.0251 70.114 10.2762C67.8983 10.5273 65.8594 11.6065 64.4058 13.2975C62.9523 14.9885 62.1915 17.1663 62.2759 19.3946C62.3603 21.6229 63.2837 23.7369 64.861 25.3131C66.4383 26.8893 68.553 27.8111 70.7813 27.8939C73.0097 27.9767 75.187 27.2143 76.8769 25.7595C78.5668 24.3047 79.6445 22.265 79.894 20.0491L75.564 21.9191C75.0842 22.6658 74.4241 23.2798 73.6447 23.7044C72.8653 24.1291 71.9916 24.3508 71.104 24.3491ZM65.814 19.0591C65.8109 17.9817 66.1369 16.929 66.7483 16.0419C67.3597 15.1548 68.2275 14.4755 69.2354 14.0949C70.2434 13.7143 71.3436 13.6506 72.3887 13.9123C73.4339 14.1739 74.3743 14.7485 75.084 15.5591L65.834 19.5591C65.834 19.3991 65.834 19.2291 65.834 19.0691" fill="#003E59"/>
<path d="M93.4736 18.079C92.3728 17.7389 91.2456 17.4914 90.1036 17.339C89.2722 17.2337 88.4522 17.0529 87.6536 16.799C87.2745 16.6774 86.9311 16.4645 86.6536 16.179C86.4457 15.8889 86.3466 15.5349 86.3736 15.179C86.3712 14.9309 86.4259 14.6855 86.5334 14.4618C86.6409 14.2382 86.7983 14.0422 86.9936 13.889C87.6258 13.4718 88.378 13.275 89.1336 13.329C89.9855 13.2799 90.8324 13.489 91.5636 13.929C91.8182 14.0886 92.0303 14.3075 92.1818 14.567C92.3333 14.8265 92.4197 15.1189 92.4336 15.419V15.879H96.3336V15.399C96.3375 14.3968 96.0066 13.4219 95.3936 12.629C94.7195 11.7848 93.8323 11.1358 92.8236 10.749C91.6361 10.2981 90.3736 10.0775 89.1036 10.099C87.8578 10.0666 86.6187 10.2913 85.4636 10.759C84.5222 11.1435 83.7127 11.7932 83.1336 12.629C82.6057 13.4146 82.33 14.3426 82.3436 15.289C82.3046 16.022 82.4631 16.7521 82.8026 17.4029C83.1421 18.0538 83.6501 18.6015 84.2736 18.989C85.7194 19.8256 87.33 20.3374 88.9936 20.489C89.8002 20.6041 90.5985 20.7711 91.3836 20.989C91.8336 21.1046 92.2488 21.3276 92.5936 21.639C92.7228 21.7801 92.8222 21.9458 92.8858 22.1262C92.9493 22.3067 92.9758 22.4981 92.9636 22.689C92.9753 22.9967 92.9057 23.302 92.7617 23.5741C92.6177 23.8463 92.4045 24.0756 92.1436 24.239C91.3315 24.6968 90.4039 24.9087 89.4736 24.849C88.7258 24.8657 87.982 24.7367 87.2836 24.469C86.7585 24.2661 86.301 23.9196 85.9636 23.469C85.6693 23.0839 85.5079 22.6137 85.5036 22.129V21.689H81.6436V22.179C81.6407 23.2133 81.9586 24.223 82.5536 25.069C83.2306 26.0264 84.1626 26.7747 85.2436 27.229C86.5571 27.7746 87.9719 28.0337 89.3936 27.989C90.7081 28.0081 92.0165 27.8052 93.2636 27.389C94.33 27.0529 95.2775 26.4178 95.9936 25.559C96.6634 24.7045 97.0168 23.6445 96.9936 22.559C97.0429 21.494 96.6854 20.4502 95.9936 19.639C95.3231 18.9162 94.4749 18.3818 93.5336 18.089" fill="#003E59"/>
<path d="M104.274 3.61914H100.334V8.98914H98.334V12.5491H100.334V20.8291C100.334 23.5491 100.904 25.3791 102.084 26.4291C103.296 27.4874 104.866 28.0451 106.474 27.9891H107.894V24.5391H107.084C106.35 24.5629 105.634 24.3054 105.084 23.8191C104.478 23.0117 104.206 22.0019 104.324 20.9991V12.5791H107.944V8.98914H104.324L104.274 3.61914Z" fill="#003E59"/>
<path d="M118.994 10.3291C117.591 10.3275 116.208 10.6594 114.959 11.2974C113.71 11.9353 112.63 12.8611 111.809 13.9983C110.988 15.1356 110.448 16.4517 110.236 17.8383C110.023 19.2248 110.144 20.642 110.586 21.973C111.029 23.304 111.782 24.5106 112.783 25.4935C113.784 26.4763 115.004 27.2072 116.343 27.6258C117.681 28.0444 119.101 28.1388 120.483 27.9012C121.865 27.6636 123.172 27.1007 124.294 26.2591V27.9891H127.834V18.7091C127.716 16.4452 126.733 14.3132 125.087 12.7536C123.442 11.194 121.261 10.326 118.994 10.3291ZM118.994 24.4691C117.946 24.4691 116.921 24.1583 116.049 23.5759C115.178 22.9935 114.498 22.1658 114.097 21.1973C113.696 20.2289 113.591 19.1632 113.796 18.1351C114 17.107 114.505 16.1627 115.246 15.4214C115.987 14.6802 116.932 14.1754 117.96 13.9709C118.988 13.7664 120.054 13.8714 121.022 14.2725C121.99 14.6737 122.818 15.353 123.401 16.2246C123.983 17.0962 124.294 18.1209 124.294 19.1691C124.294 19.8651 124.157 20.5543 123.89 21.1973C123.624 21.8404 123.234 22.4246 122.741 22.9168C122.249 23.4089 121.665 23.7993 121.022 24.0657C120.379 24.332 119.69 24.4691 118.994 24.4691Z" fill="#003E59"/>
<path d="M139.044 10.3591C137.299 10.3572 135.592 10.873 134.14 11.8414C132.688 12.8098 131.556 14.1872 130.887 15.7992C130.218 17.4113 130.043 19.1855 130.383 20.8974C130.723 22.6092 131.563 24.1817 132.797 25.4158C134.031 26.6499 135.604 27.4901 137.316 27.8301C139.027 28.1701 140.802 27.9946 142.414 27.3258C144.026 26.657 145.403 25.525 146.372 24.073C147.34 22.6211 147.856 20.9144 147.854 19.1691C147.855 18.0118 147.628 16.8656 147.186 15.7961C146.744 14.7267 146.095 13.7549 145.276 12.9366C144.458 12.1182 143.486 11.4694 142.417 11.0271C141.347 10.5848 140.201 10.3578 139.044 10.3591ZM139.044 24.4491C138 24.4491 136.979 24.1395 136.11 23.5593C135.242 22.9791 134.565 22.1545 134.166 21.1897C133.766 20.2249 133.662 19.1633 133.865 18.1391C134.069 17.1148 134.572 16.174 135.31 15.4356C136.049 14.6972 136.99 14.1943 138.014 13.9906C139.038 13.7869 140.1 13.8914 141.064 14.2911C142.029 14.6907 142.854 15.3674 143.434 16.2357C144.014 17.104 144.324 18.1249 144.324 19.1691C144.325 19.8629 144.19 20.5501 143.925 21.1913C143.66 21.8325 143.271 22.415 142.78 22.9056C142.29 23.3962 141.707 23.785 141.066 24.0499C140.425 24.3148 139.738 24.4505 139.044 24.4491Z" fill="#003E59"/>
<path d="M116.684 8.16916C116.764 7.10916 117.064 6.46916 117.684 6.46916C118.274 6.54906 118.833 6.78366 119.304 7.14916C120.004 7.59869 120.804 7.86991 121.634 7.93916C123.404 7.93916 124.234 6.61916 124.194 4.13916H122.424C122.354 5.37916 121.974 5.71916 121.424 5.71916C120.855 5.6303 120.314 5.41128 119.844 5.07916C119.145 4.61245 118.341 4.3272 117.504 4.24916C115.894 4.24916 114.874 5.71916 114.944 8.16916H116.684Z" fill="#003E59"/>
<path d="M48.5741 16.6491H56.2841V20.9891C55.318 21.991 54.1611 22.7894 52.8816 23.3373C51.6021 23.8852 50.2259 24.1714 48.8341 24.1791C47.6681 24.2121 46.5078 24.0045 45.4256 23.5692C44.3434 23.1339 43.3625 22.4803 42.5441 21.6491C41.7107 20.8168 41.0549 19.824 40.6166 18.7307C40.1782 17.6375 39.9665 16.4666 39.9941 15.2891C39.959 14.0987 40.1671 12.9137 40.6055 11.8064C41.044 10.6991 41.7036 9.69286 42.5441 8.84913C43.3744 8.00388 44.3709 7.33998 45.4708 6.89935C46.5706 6.45872 47.7499 6.25094 48.9341 6.28913C50.336 6.24715 51.7299 6.51382 53.0173 7.07025C54.3047 7.62669 55.4541 8.45929 56.3841 9.50913L58.9941 6.91913C57.7137 5.5214 56.1514 4.41101 54.4105 3.6612C52.6695 2.91138 50.7894 2.53918 48.8941 2.56913C47.2181 2.53258 45.552 2.83431 43.9954 3.4563C42.4387 4.07828 41.0234 5.00774 39.8341 6.18913C38.6085 7.35821 37.6443 8.77351 37.0048 10.3419C36.3654 11.9104 36.0652 13.5964 36.1241 15.2891C36.0639 16.9613 36.349 18.6279 36.9614 20.185C37.5738 21.7422 38.5005 23.1564 39.6837 24.3396C40.8668 25.5227 42.2811 26.4494 43.8382 27.0618C45.3953 27.6743 47.0619 27.9593 48.7341 27.8991C50.8434 27.9171 52.9309 27.4714 54.849 26.5935C56.7671 25.7157 58.4689 24.4272 59.8341 22.8191V13.1891H48.5741V16.6491Z" fill="#003E59"/>
<path d="M164.734 27.9891C166.281 27.9911 167.795 27.5339 169.082 26.6754C170.37 25.8169 171.374 24.5957 171.967 23.1663C172.56 21.737 172.715 20.1638 172.414 18.646C172.113 17.1281 171.368 15.7338 170.273 14.6396C169.179 13.5453 167.785 12.8003 166.267 12.4989C164.749 12.1975 163.176 12.3532 161.747 12.9463C160.317 13.5394 159.096 14.5433 158.238 15.8308C157.379 17.1183 156.922 18.6316 156.924 20.1791C156.924 22.2505 157.747 24.237 159.211 25.7016C160.676 27.1663 162.663 27.9891 164.734 27.9891ZM164.734 15.4991C165.659 15.4991 166.564 15.7736 167.334 16.2878C168.104 16.8021 168.703 17.533 169.058 18.3882C169.412 19.2433 169.504 20.1843 169.324 21.0921C169.143 22 168.698 22.8339 168.043 23.4884C167.389 24.1429 166.555 24.5886 165.647 24.7692C164.739 24.9498 163.798 24.8571 162.943 24.5029C162.088 24.1487 161.357 23.5488 160.843 22.7792C160.328 22.0096 160.054 21.1047 160.054 20.1791C160.053 19.5642 160.173 18.955 160.407 18.3866C160.642 17.8182 160.987 17.3018 161.422 16.8669C161.856 16.4321 162.373 16.0874 162.941 15.8527C163.51 15.618 164.119 15.4978 164.734 15.4991Z" fill="#003E59"/>
<path d="M199.873 12.259H196.733V27.939H199.873V12.259Z" fill="#003E59"/>
<path d="M198.384 10.6592C198.803 10.6572 199.212 10.5312 199.559 10.297C199.906 10.0629 200.176 9.7311 200.335 9.34355C200.494 8.956 200.535 8.53006 200.452 8.11948C200.369 7.7089 200.166 7.33209 199.869 7.0366C199.573 6.74111 199.195 6.54019 198.784 6.4592C198.373 6.37821 197.947 6.42077 197.56 6.58152C197.174 6.74226 196.843 7.01399 196.611 7.3624C196.378 7.71082 196.254 8.1203 196.254 8.53917C196.254 8.81841 196.309 9.09491 196.416 9.35277C196.523 9.61064 196.68 9.84479 196.878 10.0418C197.076 10.2388 197.311 10.3947 197.57 10.5007C197.828 10.6066 198.105 10.6605 198.384 10.6592Z" fill="#003E59"/>
<path d="M194.213 6.41919H191.073V27.9392H194.213V6.41919Z" fill="#003E59"/>
<path d="M177.733 19.989C177.648 18.7631 178.002 17.5468 178.733 16.559C179.481 15.8231 180.489 15.4107 181.538 15.4107C182.588 15.4107 183.595 15.8231 184.343 16.559C185.073 17.5476 185.427 18.7633 185.343 19.989V27.989H188.483V19.989C188.53 18.5453 188.228 17.1116 187.603 15.809C187.072 14.737 186.214 13.8614 185.153 13.309C184.044 12.7605 182.82 12.4862 181.583 12.509C180.33 12.4829 179.089 12.7572 177.963 13.309C176.903 13.8577 176.045 14.7299 175.513 15.799C174.891 17.1054 174.592 18.5427 174.643 19.989V27.989H177.763L177.733 19.989Z" fill="#003E59"/>
<path d="M205.623 19.989C205.543 18.7637 205.897 17.5491 206.623 16.559C206.976 16.1711 207.412 15.868 207.899 15.6723C208.386 15.4766 208.91 15.3935 209.433 15.429C209.955 15.3913 210.479 15.4735 210.964 15.6694C211.45 15.8652 211.884 16.1695 212.233 16.559C212.968 17.5452 213.323 18.7627 213.233 19.989V27.989H216.363V19.989C216.413 18.5461 216.114 17.1124 215.493 15.809C214.958 14.7366 214.097 13.8614 213.033 13.309C211.925 12.7594 210.7 12.485 209.463 12.509C208.213 12.4829 206.975 12.7572 205.853 13.309C204.79 13.8571 203.929 14.7291 203.393 15.799C202.78 17.1083 202.485 18.5441 202.533 19.989V27.989H205.653L205.623 19.989Z" fill="#003E59"/>
<path d="M226.204 27.9891C228.136 27.9857 229.999 27.2696 231.437 25.9781C232.874 24.6865 233.784 22.9101 233.994 20.9891L230.154 22.6391C229.773 23.231 229.265 23.7299 228.666 24.0992C228.067 24.4684 227.393 24.6984 226.693 24.7723C225.994 24.8462 225.286 24.7621 224.624 24.5261C223.961 24.2902 223.359 23.9085 222.864 23.4091L227.624 21.4091L228.924 20.8491L233.924 18.6991C233.647 17.2369 232.959 15.8838 231.941 14.7979C230.924 13.712 229.618 12.9382 228.177 12.5669C226.735 12.1957 225.218 12.2423 223.803 12.7014C222.387 13.1604 221.131 14.0129 220.182 15.1592C219.233 16.3056 218.63 17.6983 218.443 19.1748C218.256 20.6513 218.493 22.1504 219.127 23.4971C219.761 24.8437 220.764 25.9821 222.021 26.7793C223.278 27.5766 224.735 27.9996 226.224 27.9991M226.224 15.4591C226.892 15.4582 227.553 15.6005 228.162 15.8765C228.771 16.1525 229.314 16.5557 229.754 17.0591L221.554 20.5891C221.544 20.4459 221.544 20.3023 221.554 20.1591C221.552 19.5424 221.673 18.9314 221.908 18.3612C222.143 17.7911 222.488 17.2729 222.924 16.8363C223.359 16.3997 223.877 16.0534 224.447 15.8171C225.016 15.5807 225.627 15.4591 226.244 15.4591" fill="#003E59"/>
<path d="M233.994 30.7092H156.924V33.8292H233.994V30.7092Z" fill="#003E59"/>
</svg>
