<svg xmlns="http://www.w3.org/2000/svg" viewBox="0 0 30.02 30.02"><defs><style>.cls-1{fill:#fff;}</style></defs><g id="Camada_2" data-name="Camada 2"><g id="Camada_1-2" data-name="Camada 1"><path class="cls-1" d="M25.27,4.05A15,15,0,1,0,18.93,29.5h0a15.07,15.07,0,0,1-3.75-.89C8.42,26,4.05,17,7.13,10.2c3.18-6.95,11.55-7.36,18.14-6.14"/><path class="cls-1" d="M27.4,23.47A14.92,14.92,0,0,0,30,15a15.28,15.28,0,0,0-.72-4.61l0-.08Q29,9.6,28.73,8.91A7.38,7.38,0,0,0,25.06,5.2c-3.66-.68-9.4-1.12-13.43,1.48A9,9,0,1,1,15,24a9,9,0,0,1-5.74-2.07,13,13,0,0,0,6.33,5.6,14.28,14.28,0,0,0,3.45.82l.77.08s4.27-.29,7.58-5"/></g></g></svg>