<svg xmlns="http://www.w3.org/2000/svg" viewBox="0 0 140 23.77"><defs><style>.cls-1{fill:#fff;}</style></defs><g id="Camada_2" data-name="Camada 2"><g id="Camada_1-2" data-name="Camada 1"><path class="cls-1" d="M18,2.89A10.68,10.68,0,1,0,13.47,21h0a10.53,10.53,0,0,1-2.66-.63C6,18.52,2.88,12.06,5.08,7.26S13.3,2,18,2.89"/><path class="cls-1" d="M19.51,16.71a10.72,10.72,0,0,0,1.35-9.3.14.14,0,0,1,0-.06c-.12-.35-.24-.68-.39-1A5.25,5.25,0,0,0,17.84,3.7c-2.61-.48-6.69-.79-9.56,1A6.4,6.4,0,1,1,6.6,15.61a9.25,9.25,0,0,0,4.5,4,10.06,10.06,0,0,0,2.46.58l.55.06a7.92,7.92,0,0,0,5.4-3.53"/><rect class="cls-1" x="75.51" y="7.12" width="2.56" height="12.78"/><path class="cls-1" d="M76.85,2.36a1.73,1.73,0,1,0,1.74,1.73,1.73,1.73,0,0,0-1.74-1.73"/><path class="cls-1" d="M67.12,7.12a6.36,6.36,0,0,0-3.83,1.27v-6H60.73V13.51a6.39,6.39,0,1,0,6.39-6.39m0,10.22a3.83,3.83,0,1,1,3.82-3.83,3.83,3.83,0,0,1-3.82,3.83"/><rect class="cls-1" x="80.34" y="2.36" width="2.56" height="17.54"/><path class="cls-1" d="M94.52,15.58a3.82,3.82,0,0,1-5.94.62l3.88-1.67,1.06-.46,4-1.75a6.19,6.19,0,0,0-1-2.37,6.38,6.38,0,1,0,1.05,4.28ZM91.3,9.68A3.81,3.81,0,0,1,94.17,11l-6.68,2.88c0-.12,0-.24,0-.36A3.83,3.83,0,0,1,91.3,9.68"/><polygon class="cls-1" points="26.26 19.88 26.26 2.15 27.77 2.15 35.19 13.02 42.56 2.15 44.11 2.15 44.11 19.88 41.34 19.88 41.34 8.53 35.57 16.98 34.76 16.98 28.99 8.53 28.99 19.88 26.26 19.88"/><path class="cls-1" d="M52.42,7.14a6.37,6.37,0,1,0,6.37,6.37,6.37,6.37,0,0,0-6.37-6.37m0,10.18a3.81,3.81,0,1,1,3.81-3.81,3.81,3.81,0,0,1-3.81,3.81"/><path class="cls-1" d="M115.7,13.83a5.66,5.66,0,1,0-11.32,0v9.88h2.27V18.36a5.66,5.66,0,0,0,9-4.53m-9,0A3.39,3.39,0,1,1,110,17.22a3.4,3.4,0,0,1-3.39-3.39"/><path class="cls-1" d="M122.76,19.5a5.62,5.62,0,0,0,3.39-1.13V19.5h2.28v-6h0a5.66,5.66,0,1,0-5.66,6m0-9.06a3.39,3.39,0,1,1-3.39,3.39,3.39,3.39,0,0,1,3.39-3.39"/><path class="cls-1" d="M137.74,8.27V14a3.74,3.74,0,0,1-.71,2.48,2.51,2.51,0,0,1-2,.81,2.54,2.54,0,0,1-2-.81,3.78,3.78,0,0,1-.71-2.48V8.27H130v5.82a6.56,6.56,0,0,0,.63,3,4.13,4.13,0,0,0,1.77,1.81,6.25,6.25,0,0,0,4.78.18,4.58,4.58,0,0,1-4,2.41h-1.95v2.26h1.95A6.86,6.86,0,0,0,140,16.92V8.27Z"/><rect class="cls-1" x="107.46" y="21.52" width="22.89" height="2.25"/></g></g></svg>