<svg xmlns="http://www.w3.org/2000/svg" viewBox="0 0 113.74 21.62"><defs><style>.cls-1{fill:#fff;}</style></defs><g id="Camada_2" data-name="Camada 2"><g id="Camada_1-2" data-name="Camada 1"><rect class="cls-1" x="49.24" y="4.97" width="2.56" height="12.78"/><path class="cls-1" d="M50.59.2a1.74,1.74,0,1,0,1.73,1.74A1.73,1.73,0,0,0,50.59.2"/><path class="cls-1" d="M40.85,5A6.33,6.33,0,0,0,37,6.24V.2H34.46V11.36A6.39,6.39,0,1,0,40.85,5m0,10.22a3.83,3.83,0,1,1,3.83-3.83,3.83,3.83,0,0,1-3.83,3.83"/><rect class="cls-1" x="54.08" y="0.2" width="2.56" height="17.54"/><path class="cls-1" d="M68.26,13.42a3.82,3.82,0,0,1-6,.63l3.88-1.67,1.06-.46,4.06-1.75a6.39,6.39,0,1,0,.07,1.91ZM65,7.53a3.85,3.85,0,0,1,2.88,1.3l-6.68,2.88a2,2,0,0,1,0-.35A3.83,3.83,0,0,1,65,7.53"/><polygon class="cls-1" points="0 17.73 0 0 1.51 0 8.93 10.87 16.29 0 17.85 0 17.85 17.73 15.07 17.73 15.07 6.38 9.31 14.82 8.49 14.82 2.73 6.38 2.73 17.73 0 17.73"/><path class="cls-1" d="M26.16,5a6.37,6.37,0,1,0,6.36,6.37A6.37,6.37,0,0,0,26.16,5m0,10.18A3.81,3.81,0,1,1,30,11.36a3.81,3.81,0,0,1-3.81,3.81"/><path class="cls-1" d="M89.44,11.68a5.67,5.67,0,1,0-11.33,0v9.88h2.28V16.21a5.66,5.66,0,0,0,9-4.53m-9,0a3.39,3.39,0,1,1,3.39,3.39,3.39,3.39,0,0,1-3.39-3.39"/><path class="cls-1" d="M96.5,17.34a5.61,5.61,0,0,0,3.39-1.12v1.12h2.27v-6h0a5.66,5.66,0,1,0-5.66,6m0-9a3.39,3.39,0,1,1-3.39,3.39A3.39,3.39,0,0,1,96.5,8.29"/><path class="cls-1" d="M111.47,6.12v5.77a3.69,3.69,0,0,1-.71,2.48,2.92,2.92,0,0,1-4.05,0,3.73,3.73,0,0,1-.71-2.47V6.12h-2.26v5.82a6.47,6.47,0,0,0,.63,3,4.13,4.13,0,0,0,1.77,1.81,6.25,6.25,0,0,0,4.78.18,4.61,4.61,0,0,1-4,2.41h-1.95v2.26h1.95a6.86,6.86,0,0,0,6.86-6.85V6.12Z"/><rect class="cls-1" x="81.2" y="19.37" width="22.89" height="2.25"/></g></g></svg>