<svg width="39" height="37" viewBox="0 0 39 37" fill="none" xmlns="http://www.w3.org/2000/svg">
<g id="Group 123">
<path id="Vector" fill-rule="evenodd" clip-rule="evenodd" d="M18.2924 11.7238C19.9987 9.25311 19.6599 5.90926 17.4924 3.83126C15.2947 1.72016 11.9334 1.39821 9.37489 3.05376C8.32451 3.73271 7.50026 4.70926 7.00739 5.85876C6.52161 6.99703 6.39429 8.25631 6.64239 9.46876C6.89156 10.6868 7.50129 11.8018 8.39239 12.6688C9.30046 13.5465 10.4446 14.1408 11.6849 14.3788C12.9338 14.6225 14.2265 14.5003 15.4074 14.0263C16.5744 13.5593 17.5779 12.7583 18.2924 11.7238Z" stroke="#4885ED" stroke-width="3.75" stroke-linecap="round" stroke-linejoin="round"/>
<path id="Vector_2" fill-rule="evenodd" clip-rule="evenodd" d="M20.4576 31.7238C18.7511 29.253 19.0901 25.9093 21.2576 23.8313C23.4553 21.7203 26.8166 21.3983 29.3751 23.0538C30.4256 23.7328 31.2496 24.7093 31.7426 25.8588C32.2283 26.997 32.3556 28.2563 32.1076 29.4688C31.8583 30.6868 31.2486 31.8018 30.3576 32.6688C29.4496 33.5465 28.3053 34.1408 27.0651 34.3788C25.8183 34.6203 24.5286 34.497 23.3501 34.0238C22.1806 33.5585 21.1743 32.7585 20.4576 31.7238Z" stroke="#4885ED" stroke-width="3.75" stroke-linecap="round" stroke-linejoin="round"/>
<path id="Vector_3" d="M19.375 6.37622C18.3395 6.37622 17.5 7.21567 17.5 8.25122C17.5 9.28675 18.3395 10.1262 19.375 10.1262V6.37622ZM36.875 10.1262C37.9105 10.1262 38.75 9.28675 38.75 8.25122C38.75 7.21567 37.9105 6.37622 36.875 6.37622V10.1262ZM6.5175 10.1262C7.55302 10.1262 8.3925 9.28675 8.3925 8.25122C8.3925 7.21567 7.55302 6.37622 6.5175 6.37622V10.1262ZM1.875 6.37622C0.839475 6.37622 0 7.21567 0 8.25122C0 9.28675 0.839475 10.1262 1.875 10.1262V6.37622ZM19.375 30.1262C20.4105 30.1262 21.25 29.2867 21.25 28.2512C21.25 27.2157 20.4105 26.3762 19.375 26.3762V30.1262ZM1.875 26.3762C0.839475 26.3762 0 27.2157 0 28.2512C0 29.2867 0.839475 30.1262 1.875 30.1262V26.3762ZM32.2325 26.3762C31.197 26.3762 30.3575 27.2157 30.3575 28.2512C30.3575 29.2867 31.197 30.1262 32.2325 30.1262V26.3762ZM36.875 30.1262C37.9105 30.1262 38.75 29.2867 38.75 28.2512C38.75 27.2157 37.9105 26.3762 36.875 26.3762V30.1262ZM19.375 10.1262H36.875V6.37622H19.375V10.1262ZM6.5175 6.37622H1.875V10.1262H6.5175V6.37622ZM19.375 26.3762H1.875V30.1262H19.375V26.3762ZM32.2325 30.1262H36.875V26.3762H32.2325V30.1262Z" fill="#4885ED"/>
</g>
</svg>
