<svg width="39" height="37" viewBox="0 0 39 37" fill="none" xmlns="http://www.w3.org/2000/svg">
<path fill-rule="evenodd" clip-rule="evenodd" d="M18.2924 11.7238C19.9987 9.25311 19.6599 5.90926 17.4924 3.83126C15.2947 1.72016 11.9334 1.39821 9.37489 3.05376C8.32451 3.73271 7.50026 4.70926 7.00739 5.85876C6.52161 6.99703 6.39429 8.25631 6.64239 9.46876C6.89156 10.6868 7.50129 11.8018 8.39239 12.6688C9.30046 13.5465 10.4446 14.1408 11.6849 14.3788C12.9338 14.6225 14.2265 14.5003 15.4074 14.0263C16.5744 13.5593 17.5779 12.7583 18.2924 11.7238Z" stroke="#007E7D" stroke-width="3.75" stroke-linecap="round" stroke-linejoin="round"/>
<path fill-rule="evenodd" clip-rule="evenodd" d="M20.4576 31.7237C18.7511 29.253 19.0901 25.9092 21.2576 23.8312C23.4553 21.7202 26.8166 21.3982 29.3751 23.0537C30.4256 23.7327 31.2496 24.7092 31.7426 25.8587C32.2283 26.997 32.3556 28.2562 32.1076 29.4687C31.8583 30.6867 31.2486 31.8017 30.3576 32.6687C29.4496 33.5465 28.3053 34.1407 27.0651 34.3787C25.8183 34.6202 24.5286 34.497 23.3501 34.0237C22.1806 33.5585 21.1743 32.7585 20.4576 31.7237Z" stroke="#007E7D" stroke-width="3.75" stroke-linecap="round" stroke-linejoin="round"/>
<path d="M20.625 8.87622V7.62622H35.625V8.87622H20.625ZM5.2675 7.62622V8.87622H3.125V7.62622H5.2675ZM18.125 27.6262V28.8762H3.125V27.6262H18.125ZM33.4825 28.8762V27.6262H35.625V28.8762H33.4825Z" fill="#4885ED" stroke="#007E7D" stroke-width="2.5"/>
</svg>
