<svg width="45" height="43" viewBox="0 0 45 43" fill="none" xmlns="http://www.w3.org/2000/svg">
<path d="M18.128 34.5H26.8718M12.0073 2H32.9926C35.4411 2 36.6654 2 37.6006 2.47231C38.4232 2.88775 39.0921 3.55066 39.5111 4.36604C39.9877 5.29299 39.9877 6.50645 39.9877 8.93333V21.0667C39.9877 23.4936 39.9877 24.7071 39.5111 25.634C39.0921 26.4493 38.4232 27.1123 37.6006 27.5277C36.6654 28 35.4411 28 32.9926 28H12.0073C9.55877 28 8.33451 28 7.39931 27.5277C6.57666 27.1123 5.90784 26.4493 5.48868 25.634C5.01218 24.7071 5.01218 23.4936 5.01218 21.0667V8.93333C5.01218 6.50645 5.01218 5.29299 5.48868 4.36604C5.90784 3.55066 6.57666 2.88775 7.39931 2.47231C8.33451 2 9.55877 2 12.0073 2ZM6.29939 41H38.7006C40.5744 41 41.5113 41 42.0755 40.6089C42.5682 40.2672 42.8974 39.7397 42.9853 39.1501C43.0859 38.4748 42.6668 37.6443 41.8289 35.9831L40.7018 33.749C39.6491 31.6621 39.1227 30.6186 38.3375 29.8562C37.643 29.1821 36.806 28.6695 35.887 28.3553C34.848 28 33.6709 28 31.317 28H13.683C11.329 28 10.152 28 9.11283 28.3553C8.19389 28.6695 7.35692 29.1821 6.66246 29.8562C5.87717 30.6186 5.35079 31.6621 4.29805 33.749L3.17109 35.9831C2.33308 37.6443 1.91407 38.4748 2.01471 39.1501C2.10259 39.7397 2.43162 40.2672 2.92434 40.6089C3.48863 41 4.42553 41 6.29939 41Z" stroke="#4885ED" stroke-width="3" stroke-linecap="round" stroke-linejoin="round"/>
</svg>
