<svg width="47" height="43" viewBox="0 0 47 43" fill="none" xmlns="http://www.w3.org/2000/svg">
<path fill-rule="evenodd" clip-rule="evenodd" d="M41.5833 28.7932C41.5833 27.3592 41.0137 25.9839 39.9997 24.9699C38.9857 23.9559 37.6104 23.3862 36.1764 23.3862H36.1703C34.7364 23.3862 33.3611 23.9559 32.3471 24.9699C31.3331 25.9839 30.7634 27.3592 30.7634 28.7932C30.7634 31.2106 30.7634 34.3685 30.7634 36.7859C30.7634 38.2199 31.3331 39.5952 32.3471 40.6092C33.3611 41.6232 34.7364 42.1929 36.1703 42.1929H36.1764C37.6104 42.1929 38.9857 41.6232 39.9997 40.6092C41.0137 39.5952 41.5833 38.2199 41.5833 36.7859V28.7932ZM15.4693 28.7932C15.4693 27.3592 14.8996 25.9839 13.8857 24.9699C12.8717 23.9559 11.4964 23.3862 10.0624 23.3862H10.0563C8.62232 23.3862 7.24704 23.9559 6.23304 24.9699C5.21905 25.9839 4.64941 27.3592 4.64941 28.7932C4.64941 31.2106 4.64941 34.3685 4.64941 36.7859C4.64941 38.2199 5.21905 39.5952 6.23304 40.6092C7.24704 41.6232 8.62232 42.1929 10.0563 42.1929H10.0624C11.4964 42.1929 12.8717 41.6232 13.8857 40.6092C14.8996 39.5952 15.4693 38.2199 15.4693 36.7859V28.7932ZM38.0754 28.7932V36.7859C38.0754 37.2896 37.8753 37.7726 37.5191 38.1287C37.1631 38.4848 36.6801 38.6849 36.1765 38.6849C36.1763 38.6849 36.1703 38.6849 36.1703 38.6849C35.6667 38.6849 35.1837 38.4848 34.8276 38.1287C34.4714 37.7726 34.2714 37.2896 34.2714 36.7859V28.7932C34.2714 28.2896 34.4714 27.8065 34.8276 27.4504C35.1837 27.0943 35.6667 26.8942 36.1703 26.8942C36.1705 26.8942 36.1763 26.8942 36.1763 26.8942C36.6801 26.8942 37.1631 27.0943 37.5191 27.4504C37.8753 27.8065 38.0754 28.2896 38.0754 28.7932ZM11.9613 28.7932V36.7859C11.9613 37.2896 11.7613 37.7726 11.4052 38.1287C11.049 38.4848 10.5661 38.6849 10.0625 38.6849C10.0623 38.6849 10.0564 38.6849 10.0564 38.6849C9.55263 38.6849 9.06966 38.4848 8.71359 38.1287C8.35746 37.7726 8.15737 37.2896 8.15737 36.7859V28.7932C8.15737 28.2896 8.35746 27.8065 8.71359 27.4504C9.06966 27.0943 9.55263 26.8942 10.0563 26.8942C10.0565 26.8942 10.0624 26.8942 10.0624 26.8942C10.5661 26.8942 11.049 27.0943 11.4052 27.4504C11.7613 27.8065 11.9613 28.2896 11.9613 28.7932Z" fill="#007E7D"/>
<path fill-rule="evenodd" clip-rule="evenodd" d="M46.2329 32.8936V20.463C46.2328 9.16159 37.0712 0 25.7698 0C24.009 0 22.2238 0 20.463 0C9.16159 0 0 9.16159 0 20.463C0 27.072 0 32.8936 0 32.8936C0 33.8617 0.785893 34.6476 1.75398 34.6476C2.722 34.6476 3.50795 33.8617 3.50795 32.8936V20.4631C3.50801 11.0989 11.099 3.50795 20.463 3.50795C22.2238 3.50795 24.009 3.50795 25.7698 3.50795C35.1338 3.50795 42.7248 11.0989 42.7249 20.4629C42.7249 20.4631 42.7249 32.8936 42.7249 32.8936C42.7249 33.8617 43.5108 34.6476 44.4789 34.6476C45.4469 34.6476 46.2329 33.8617 46.2329 32.8936ZM17.8936 8.73076H27.2947C28.2627 8.73076 29.0486 7.94481 29.0486 6.97678C29.0486 6.0087 28.2627 5.22281 27.2947 5.22281H17.8936C16.9256 5.22281 16.1397 6.0087 16.1397 6.97678C16.1397 7.94481 16.9256 8.73076 17.8936 8.73076Z" fill="#007E7D"/>
</svg>
