<svg width="47" height="43" viewBox="0 0 47 43" fill="none" xmlns="http://www.w3.org/2000/svg">
<g id="Group">
<path id="Vector" fill-rule="evenodd" clip-rule="evenodd" d="M41.5833 28.7933C41.5833 27.3593 41.0137 25.984 39.9997 24.97C38.9857 23.956 37.6104 23.3863 36.1764 23.3863H36.1703C34.7364 23.3863 33.3611 23.956 32.3471 24.97C31.3331 25.984 30.7634 27.3593 30.7634 28.7933C30.7634 31.2107 30.7634 34.3686 30.7634 36.786C30.7634 38.22 31.3331 39.5953 32.3471 40.6093C33.3611 41.6233 34.7364 42.193 36.1703 42.193H36.1764C37.6104 42.193 38.9857 41.6233 39.9997 40.6093C41.0137 39.5953 41.5833 38.22 41.5833 36.786V28.7933ZM15.4693 28.7933C15.4693 27.3593 14.8996 25.984 13.8857 24.97C12.8717 23.956 11.4964 23.3863 10.0624 23.3863H10.0563C8.62232 23.3863 7.24704 23.956 6.23304 24.97C5.21905 25.984 4.64941 27.3593 4.64941 28.7933C4.64941 31.2107 4.64941 34.3686 4.64941 36.786C4.64941 38.22 5.21905 39.5953 6.23304 40.6093C7.24704 41.6233 8.62232 42.193 10.0563 42.193H10.0624C11.4964 42.193 12.8717 41.6233 13.8857 40.6093C14.8996 39.5953 15.4693 38.22 15.4693 36.786V28.7933ZM38.0754 28.7933V36.786C38.0754 37.2896 37.8753 37.7727 37.5191 38.1288C37.1631 38.4849 36.6801 38.6849 36.1765 38.685C36.1763 38.685 36.1703 38.685 36.1703 38.685C35.6667 38.6849 35.1837 38.4849 34.8276 38.1288C34.4714 37.7727 34.2714 37.2896 34.2714 36.786V28.7933C34.2714 28.2896 34.4714 27.8066 34.8276 27.4505C35.1837 27.0943 35.6667 26.8943 36.1703 26.8942C36.1705 26.8942 36.1763 26.8942 36.1763 26.8942C36.6801 26.8943 37.1631 27.0943 37.5191 27.4505C37.8753 27.8066 38.0754 28.2896 38.0754 28.7933ZM11.9613 28.7933V36.786C11.9613 37.2896 11.7613 37.7727 11.4052 38.1288C11.049 38.4849 10.5661 38.6849 10.0625 38.685C10.0623 38.685 10.0564 38.685 10.0564 38.685C9.55263 38.6849 9.06966 38.4849 8.71359 38.1288C8.35746 37.7727 8.15737 37.2896 8.15737 36.786V28.7933C8.15737 28.2896 8.35746 27.8066 8.71359 27.4505C9.06966 27.0943 9.55263 26.8943 10.0563 26.8942C10.0565 26.8942 10.0624 26.8942 10.0624 26.8942C10.5661 26.8943 11.049 27.0943 11.4052 27.4505C11.7613 27.8066 11.9613 28.2896 11.9613 28.7933Z" fill="#4885ED"/>
<path id="Vector_2" fill-rule="evenodd" clip-rule="evenodd" d="M46.2329 32.8936V20.463C46.2328 9.16159 37.0712 0 25.7698 0C24.009 0 22.2238 0 20.463 0C9.16159 0 0 9.16159 0 20.463C0 27.072 0 32.8936 0 32.8936C0 33.8617 0.785893 34.6476 1.75398 34.6476C2.722 34.6476 3.50795 33.8617 3.50795 32.8936V20.4631C3.50801 11.0989 11.099 3.50795 20.463 3.50795C22.2238 3.50795 24.009 3.50795 25.7698 3.50795C35.1338 3.50795 42.7248 11.0989 42.7249 20.4629C42.7249 20.4631 42.7249 32.8936 42.7249 32.8936C42.7249 33.8617 43.5108 34.6476 44.4789 34.6476C45.4469 34.6476 46.2329 33.8617 46.2329 32.8936ZM17.8936 8.73076H27.2947C28.2627 8.73076 29.0486 7.94481 29.0486 6.97678C29.0486 6.0087 28.2627 5.22281 27.2947 5.22281H17.8936C16.9256 5.22281 16.1397 6.0087 16.1397 6.97678C16.1397 7.94481 16.9256 8.73076 17.8936 8.73076Z" fill="#4885ED"/>
</g>
</svg>
