<svg width="42" height="42" viewBox="0 0 42 42" fill="none" xmlns="http://www.w3.org/2000/svg">
<path id="Vector" d="M35.4375 0C39.0619 0 42 2.93813 42 6.5625V35.4375C42 39.0619 39.0619 42 35.4375 42H7.875C3.6246 42 0.160687 38.6327 0.00543174 34.4202L0 34.125V23.625C0 19.3746 3.36732 15.9107 7.57977 15.7554L7.875 15.75H15.75V6.5625C15.75 2.93813 18.6881 0 22.3125 0L35.4375 0ZM15.75 18.375H7.875C5.06337 18.375 2.76796 20.5852 2.63142 23.363L2.625 23.625V34.125C2.625 36.9366 4.83521 39.232 7.61297 39.3686L7.875 39.375L17.0632 39.3766C16.2386 38.2795 15.75 36.9156 15.75 35.4375V18.375ZM22.4249 2.62592L22.3125 2.625C20.2155 2.625 18.5014 4.26421 18.3817 6.33114L18.375 6.5625V35.4375C18.375 37.5345 20.0142 39.2486 22.0811 39.3683L22.3125 39.375H35.4375C37.5345 39.375 39.2486 37.7358 39.3683 35.6689L39.375 35.4375V6.5625C39.375 4.46554 37.7358 2.75145 35.6689 2.63168L35.4375 2.625L35.3251 2.62592C35.0546 3.3901 34.3256 3.9375 33.4688 3.9375H24.2812C23.4244 3.9375 22.6954 3.3901 22.4249 2.62592ZM34.125 19.6875C34.8499 19.6875 35.4375 20.2751 35.4375 21C35.4375 21.7249 34.8499 22.3125 34.125 22.3125H23.625C22.9001 22.3125 22.3125 21.7249 22.3125 21C22.3125 20.2751 22.9001 19.6875 23.625 19.6875H34.125ZM30.1875 13.125C30.9124 13.125 31.5 13.7126 31.5 14.4375C31.5 15.1624 30.9124 15.75 30.1875 15.75H23.625C22.9001 15.75 22.3125 15.1624 22.3125 14.4375C22.3125 13.7126 22.9001 13.125 23.625 13.125H30.1875Z" fill="#4885ED"/>
</svg>
