<svg xmlns="http://www.w3.org/2000/svg" viewBox="0 0 118.9 19.19"><defs><style>.cls-1{fill:#fff;}</style></defs><g id="Camada_2" data-name="Camada 2"><g id="Camada_1-2" data-name="Camada 1"><path class="cls-1" d="M21.26,11.46A3.27,3.27,0,0,1,18.48,13a3.31,3.31,0,0,1-2.34-1l3.35-1.44.91-.39,3.5-1.51a5.61,5.61,0,0,0-.83-2h0A5.52,5.52,0,1,0,24,10.3ZM18.49,6.38A3.32,3.32,0,0,1,21,7.5L15.2,10c0-.1,0-.2,0-.3a3.3,3.3,0,0,1,3.3-3.3"/><path class="cls-1" d="M33.06,9.64a3.68,3.68,0,0,0-.69-2.41,2.45,2.45,0,0,0-2-.79,2.46,2.46,0,0,0-2,.79,3.65,3.65,0,0,0-.69,2.41v5.61H25.53V9.59a6.41,6.41,0,0,1,.61-2.94,4.09,4.09,0,0,1,1.73-1.76,5.55,5.55,0,0,1,2.54-.55,5.43,5.43,0,0,1,2.51.56,4,4,0,0,1,1.73,1.76,6.44,6.44,0,0,1,.61,2.94v5.66h-2.2Z"/><path class="cls-1" d="M37,9.69a5.51,5.51,0,1,0,11,0V.08H45.8V5.29A5.51,5.51,0,0,0,37,9.69m2.21,0a3.3,3.3,0,1,1,3.3,3.3,3.3,3.3,0,0,1-3.3-3.3"/><path class="cls-1" d="M60.51,9.42a5.53,5.53,0,1,0-2.21,4.7v1.1h2.21V9.42ZM55,13a3.3,3.3,0,1,1,3.3-3.3A3.31,3.31,0,0,1,55,13"/><polygon class="cls-1" points="11.84 0 14.49 0 8.07 15.29 6.48 15.29 0 0 2.72 0 7.3 11.36 11.84 0"/><path class="cls-1" d="M68.7,13.53V9.6A2.16,2.16,0,0,1,69.12,8a1.58,1.58,0,0,1,1.13-.4h.45V5.73h-.78a3.52,3.52,0,0,0-2.43.86,4,4,0,0,0-1,3.09v5.82H68.7Z"/><polygon class="cls-1" points="80 2.3 77.96 2.3 76.6 4.39 78.65 4.39 80 2.3"/><rect class="cls-1" x="94.51" y="5.74" width="1.96" height="9.77"/><path class="cls-1" d="M95.54,4.75a1.33,1.33,0,1,0-1.32-1.33,1.32,1.32,0,0,0,1.32,1.33"/><path class="cls-1" d="M93,10.63a4.89,4.89,0,1,0-9.77,0v8.52h1.95V14.54A4.89,4.89,0,0,0,93,10.63m-7.81,0a2.93,2.93,0,1,1,2.92,2.92,2.93,2.93,0,0,1-2.92-2.92"/><path class="cls-1" d="M102.92,15.52a4.89,4.89,0,0,0,4.89-4.88V2.11h-2V6.72a4.89,4.89,0,1,0-2.93,8.8m0-7.81A2.93,2.93,0,1,1,100,10.63a2.93,2.93,0,0,1,2.93-2.92"/><path class="cls-1" d="M76.84,15.53a4.88,4.88,0,0,0,2.93-1v1h2V10.39h0a4.89,4.89,0,1,0-4.89,5.14m0-7.81a2.93,2.93,0,1,1-2.93,2.92,2.92,2.92,0,0,1,2.93-2.92"/><path class="cls-1" d="M114,15.52a4.77,4.77,0,0,0,2.92-1v1h2V10.39h0A4.88,4.88,0,1,0,114,15.52m0-7.81a2.93,2.93,0,1,1-2.92,2.93A2.94,2.94,0,0,1,114,7.71"/><rect class="cls-1" x="85.92" y="17.24" width="32.97" height="1.94"/><rect class="cls-1" x="66.52" y="17.24" width="15.99" height="1.94"/></g></g></svg>